# Blender 5.1.2
# www.blender.org
mtllib detonator.mtl
o Cubo
v -6.143468 -6.663967 5.346659
v -6.143468 5.622970 5.346657
v -6.143468 -6.663969 -6.940278
v -6.143468 5.622968 -6.940279
v 6.143468 -6.663967 5.346659
v 6.143468 5.622970 5.346657
v 6.143468 -6.663969 -6.940278
v 6.143468 5.622968 -6.940279
vn -1.0000 -0.0000 -0.0000
vn -0.0000 -0.0000 -1.0000
vn 1.0000 -0.0000 -0.0000
vn -0.0000 -0.0000 1.0000
vn -0.0000 -1.0000 -0.0000
vn -0.0000 1.0000 -0.0000
vt 0.490533 0.367135
vt 0.487927 0.652620
vt 0.250602 0.649460
vt 0.253207 0.363975
vt 0.489361 0.364975
vt 0.487205 0.648151
vt 0.255320 0.646267
vt 0.257476 0.363091
vt 0.487916 0.363938
vt 0.489390 0.648841
vt 0.248456 0.650859
vt 0.246982 0.365956
vt 0.489838 0.365507
vt 0.490972 0.650673
vt 0.258389 0.652159
vt 0.257255 0.366993
vt 0.272815 0.068671
vt 0.471866 0.068671
vt 0.471866 0.354776
vt 0.272815 0.354776
vt 0.266645 0.661058
vt 0.474860 0.661058
vt 0.474860 0.947442
vt 0.266645 0.947442
s 1
usemtl Material.001
f 1/1/1 2/2/1 4/3/1 3/4/1
f 3/5/2 4/6/2 8/7/2 7/8/2
f 7/9/3 8/10/3 6/11/3 5/12/3
f 5/13/4 6/14/4 2/15/4 1/16/4
f 3/17/5 7/18/5 5/19/5 1/20/5
f 8/21/6 4/22/6 2/23/6 6/24/6
