# Blender 5.1.2
# www.blender.org
mtllib rocketlauncher.mtl
o rocketlauncher_mesh_12221651
v -2.327665 0.403351 -15.606574
v -2.589139 0.994389 -10.960974
v -2.013186 0.007705 -2.903216
v -2.488896 0.679342 -2.902432
v -2.597378 1.916134 -2.902432
v -2.653734 1.926068 7.363877
v 0.558722 3.680897 -2.903216
v -0.235202 3.897452 8.830495
v -0.235202 3.820884 -2.903216
v 0.167844 3.785347 -22.048441
v -2.925415 3.069704 23.619516
v -2.522202 1.902889 15.087320
v -2.246355 2.660796 15.087320
v 2.795747 0.959284 23.619516
v 2.075471 1.092184 15.023654
v 1.257537 -0.279412 15.087320
v -1.029118 3.680897 -2.903216
v -1.752135 3.307439 -22.049242
v 0.558722 -0.681665 -2.903216
v 1.281749 -0.308206 -22.049242
v 0.167843 -0.786116 -22.048441
v 2.114447 -0.493816 23.619118
v -2.207011 3.875585 23.619118
v 0.925805 3.510596 15.087320
v 0.304182 4.591877 23.620598
v -0.235203 3.821972 15.087320
v -1.089322 -0.847062 10.358498
v -1.028855 -0.680921 8.877604
v -2.311781 0.300700 8.830495
v -1.813788 -0.381671 7.363877
v -0.235203 -0.820868 8.877604
v -1.029118 -0.681665 -2.903216
v 0.963582 3.575959 8.830495
v -1.746521 -0.297448 -14.809177
v -1.727278 -0.278580 -2.903216
v -1.752136 -0.308206 -22.049242
v -2.531102 1.094784 -22.049042
v -2.555410 1.501348 -12.644426
v -2.415487 2.293176 -11.521937
v -2.589547 2.005476 -7.037145
v -2.576997 1.929923 -11.335577
v -2.576998 1.073197 -6.014277
v 1.040325 -0.712259 20.684244
v 2.160358 0.626673 20.683603
v 2.383431 -0.012076 24.547964
v -3.213140 2.024640 24.547724
v -2.853837 3.011316 24.547964
v -2.630748 2.372552 20.683563
v 1.104930 -0.097482 -17.519817
v -0.948262 -0.459503 -17.519817
v 0.147248 -0.669331 -22.624483
v 0.147248 3.668563 -22.624483
v -1.336397 3.406962 -22.624483
v -0.235193 3.584477 -17.519817
v 2.070241 1.093104 -2.902624
v 1.891798 0.271594 -1.435815
v 2.126205 1.083242 8.830495
v 1.945828 0.705784 -22.048441
v 1.775078 0.338980 -2.903215
v -2.694638 1.933283 14.659450
v -2.732190 1.499620 10.358498
v -2.397995 2.748306 14.659450
v -0.113771 4.125909 13.671093
v -3.878608 1.858674 -6.276822
v -6.774434 1.942817 -6.001879
v -4.287204 1.858674 -8.235337
v -3.681361 1.124906 -6.268184
v -4.308080 1.142726 -8.234298
v -6.783272 1.056856 -8.156314
v 2.075471 1.907048 15.023654
v 2.823940 2.044899 23.619198
v 1.761592 3.905187 23.620037
v 1.040325 3.711491 20.684244
v 2.160358 2.372551 20.683603
v 0.632874 3.006597 17.786003
v 1.677602 3.104656 10.358498
v 1.370082 3.412713 14.659450
v 0.543205 4.093940 13.671093
v 2.134923 0.636958 14.365710
v 2.224225 1.933282 14.659450
v -2.231998 -0.905954 23.620037
v -1.743379 -0.297768 15.023654
v -2.925415 -0.070471 23.619516
v -1.510723 -0.712258 20.684244
v -2.630748 0.626673 20.683563
v -1.103280 -0.007356 17.786003
v -2.266909 0.323712 -17.518978
v -2.304781 0.746344 -22.624483
v -1.336398 -0.407729 -22.624483
v -2.040732 0.457188 -17.519817
v 1.759746 -2.040928 -11.396604
v 2.372475 -1.932894 -11.396604
v 1.655055 -2.006183 -13.440421
v 1.857590 -0.804320 -9.786576
v 1.387959 -1.243509 -11.396604
v 1.864516 -0.843631 -11.396604
v -1.512953 3.441059 -6.600955
v -1.749800 3.304615 -7.037105
v -2.624124 1.673041 -5.897421
v 1.864516 -0.843631 -11.396604
v 1.387959 -1.243509 -11.396604
v 1.655055 -0.906370 -13.440421
v 2.597949 -1.346007 -13.440421
v 2.380754 -1.942756 -13.440421
v 1.374001 -1.801849 -7.238503
v 1.249387 -1.328771 -7.186674
v 1.031608 -1.290371 -4.159020
v 2.597949 -1.346007 -13.440421
v 2.613545 -1.569297 -9.786576
v 2.303570 -0.882959 -9.786576
v 2.664055 -1.578216 -7.224866
v 2.535001 -1.928223 -7.186674
v 2.799987 -1.934006 -4.159020
v 1.759746 -2.040928 -11.396604
v 1.746092 -2.078440 -9.786576
v 2.372475 -1.932894 -11.396604
v -1.840423 -0.413416 10.358498
v -1.284386 -1.414937 23.619118
v -0.638416 -0.787179 15.087320
v 1.343391 -0.381671 7.363877
v 1.841384 0.300700 8.830495
v 1.533744 -0.437052 13.689289
v 0.584908 -0.753610 8.830495
v 1.278933 -0.874273 -3.867280
v 1.443163 -1.012085 -7.238503
v 1.972541 -2.361829 -3.867280
v 2.579752 -2.179931 -3.940217
v 2.223706 -2.146306 -7.186674
v -2.288377 1.861650 -17.519817
v -2.437602 1.499620 -22.624483
v 1.233975 0.964883 -13.691290
v 0.546533 0.145620 -13.691290
v -0.235202 -0.821652 -2.903216
v -1.052056 -0.744708 -22.121145
v 2.446500 -1.853983 -15.568781
v 1.891967 -1.913274 -15.509873
v 1.972542 -2.113745 -15.647326
v 2.082807 -0.830954 -14.030699
v 2.597949 -1.346007 -13.440421
v 2.082807 -0.830954 -13.440421
v -1.749801 3.304607 -6.169604
v -2.072430 3.041238 -2.902432
v -2.555778 1.908728 -6.169085
v -3.104969 1.909304 -7.036985
v 2.501928 -1.012085 -7.238503
v 2.664055 -1.334346 -7.224866
v 2.864333 -1.299034 -3.867280
v 1.972542 -0.783900 -9.201617
v 2.545119 -1.125693 -9.201218
v 2.085807 1.499620 -22.048441
v 1.451954 0.083937 -22.624483
v 1.967224 1.499620 -22.624483
v 1.817990 1.137583 -17.519817
v 1.457536 -1.888424 -9.201617
v 1.736158 -2.105731 -7.238503
v 1.972542 -2.128654 -9.201617
v -2.408593 2.770278 9.835526
v -2.596602 1.083242 8.830495
v 1.394012 2.093961 17.785482
v -1.864418 0.905271 17.785482
v 1.347143 -1.346007 -14.030699
v 1.435965 -1.766073 -14.629335
v 1.402476 -1.127149 -14.630095
v 1.495992 -1.856158 -11.396604
v 1.271407 -1.456273 -13.414667
v -3.050172 1.858674 -8.691203
v -2.830273 1.908728 -10.946537
v -3.934948 1.858674 -10.758336
v -3.345231 1.858674 -10.808406
v -3.099577 1.876694 -10.746538
v -3.101401 1.123922 -10.748738
v -6.783232 1.944529 -8.150035
v -6.774434 1.058576 -6.008238
v -3.116998 1.091337 -9.338348
v -3.130667 1.124906 -8.385467
v -2.830273 1.142726 -6.301057
v -3.116998 1.507451 -9.338348
v -1.284386 4.414170 23.619118
v -1.510723 3.711491 20.684244
v 0.207889 4.015460 20.684484
v -0.536828 3.214090 17.786203
v -1.887396 -0.287290 -17.086187
v -2.270013 -0.662413 -15.639127
v -2.325977 -0.595714 -17.032959
v -4.889359 -2.886017 -17.157492
v -2.717712 -0.128859 -16.667953
v -2.661756 -0.195549 -15.232451
v -5.362381 -2.322285 -15.107917
v -2.452551 2.306669 -22.049242
v -1.922340 2.915304 -22.624483
v 1.972541 -1.456281 -4.338503
v 2.462136 -1.867108 -4.279595
v 1.652968 -2.009790 -4.279595
v 2.554637 -0.762584 -3.867280
v 1.972541 -0.511620 -3.940217
v 2.208909 -0.806831 -7.238503
v 1.340784 -1.226344 -9.201617
v 1.540351 -0.941211 -9.201617
v 1.244764 -1.456273 -9.814291
v 1.542791 2.991520 -22.048441
v 1.256882 3.277812 -2.903215
v 0.925311 3.509660 -22.048441
v 1.451954 2.915303 -22.624483
v 2.476734 -1.033208 -14.630095
v 1.858254 -0.808103 -14.630095
v 2.086702 -0.808871 -15.647326
v 2.541921 -1.785013 -15.647326
v 2.476734 -1.879345 -14.630095
v 0.168018 -0.787179 15.087320
v -0.235203 -1.601987 23.619118
v 1.298416 -1.186137 23.619118
v -2.178689 -0.816277 24.548325
v -1.269246 -1.341072 24.548645
v 1.955282 2.296879 -22.049042
v 2.126966 1.916134 -2.902432
v 1.601434 3.040734 8.830495
v 1.602042 3.041237 -2.902432
v -0.235193 1.499612 -13.539401
v -1.575316 3.096714 -17.519817
v -1.737076 4.765169 14.318439
v -2.236853 4.561043 13.890529
v -2.236853 4.446035 14.468688
v -3.043046 5.510007 14.009904
v -2.543277 5.351744 13.562996
v -2.543277 5.746118 13.773792
v -2.543277 4.656831 14.863088
v -2.236853 5.201479 15.088680
v -1.953751 4.739742 14.780145
v -1.953751 5.074081 13.678012
v -2.236853 5.629383 13.678012
v 2.487571 -1.888424 -9.201617
v 1.643850 -0.886958 -15.647326
v 1.296306 -1.575520 -14.757269
v 1.436653 -1.146881 -15.568781
v -1.928172 3.566113 14.038378
v -1.868025 3.414496 9.835526
v 0.214712 4.109921 13.945277
v -5.362381 -2.322285 -17.157492
v -4.810520 -2.979958 -15.567942
v -1.038172 3.700461 8.854089
v -1.772404 3.335329 8.830495
v 2.189753 -2.053037 -14.030699
v 1.760634 -2.038496 -14.629335
v 1.390390 -1.668165 -14.031499
v 1.755346 -2.053030 -14.030699
v 3.842451 2.784762 13.150841
v 4.371741 3.004949 13.267577
v 4.181420 3.306078 13.231744
v 4.444726 2.880222 13.983548
v 4.071363 3.004949 14.257812
v 4.282840 3.349885 14.027340
v -3.681361 1.289216 -6.134091
v -6.669896 1.250248 -5.855469
v -3.104904 1.908880 -6.169765
v -2.338591 3.748915 -6.170364
v 2.558677 -1.669621 -14.030899
v 2.597949 -1.346007 -14.030699
v -2.711450 3.683553 -7.036985
v -2.941090 3.225719 -6.170364
v -0.233403 -1.061659 14.036658
v 1.410313 -0.463526 14.036658
v 2.383431 3.011315 24.547964
v 1.708291 3.815509 24.548325
v -0.235203 4.522539 24.548765
v 1.708291 -0.816277 24.548325
v 0.798847 -1.341072 24.548645
v 1.972542 -0.765152 -7.238503
v 1.500263 -0.638274 -3.940217
v -4.080063 1.123922 -8.395144
v -3.878608 1.858674 -8.255133
v -4.104673 1.908728 -10.499550
v -4.168652 1.142726 -10.543620
v -6.660457 1.272100 -8.269530
v 2.224225 1.933282 14.659450
v 2.224145 1.933266 10.358498
v 2.126205 1.915998 8.830495
v 0.109583 -1.306960 -13.064980
v -0.730579 -1.405275 -11.808639
v 0.403770 -1.405275 -12.750644
v -0.578547 -0.621973 -12.436909
v -0.635631 -0.621973 -10.002373
v 3.956907 2.462933 13.457897
v 4.371741 2.774476 13.337482
v 3.542073 3.085884 14.089288
v 3.956907 3.419791 14.097245
v -0.459555 -1.338193 -12.047429
v -0.322072 -1.840729 -11.749171
v -0.550936 -1.840729 -12.145609
v 0.126027 -1.978269 -11.765887
v 0.296584 -1.703894 -12.145609
v 0.286514 -1.978269 -12.364843
v -2.826371 5.074081 14.958867
v -3.043046 4.765169 14.318439
v -2.690599 4.489866 14.459970
v -2.690599 4.598204 13.915322
v -1.051992 3.743756 -22.552576
v 0.174426 3.822668 -22.624483
v 1.281246 3.306839 -22.624483
v 0.403770 -1.405275 -10.238363
v -0.783448 -1.405275 -10.238363
v 0.404554 -0.621973 -10.238003
v 0.330817 -0.621973 -12.986675
v -2.064423 3.034519 -22.552576
v 1.660655 -0.916080 -14.030899
v 2.545119 -1.125693 -9.201218
v 2.479693 -1.881817 -9.786576
v -0.235193 -0.859548 -22.624483
v 0.944251 -0.543238 -22.624483
v -1.751632 -0.307606 -22.624483
v -2.451815 0.692827 -22.624483
v -3.043046 5.637781 14.318439
v -2.543277 5.971712 14.318439
v -2.543277 5.746118 14.863088
v -1.953751 5.854455 14.318439
v -1.619812 5.260107 14.176869
v -1.664507 5.368444 14.568308
v 1.104930 3.096714 -17.519817
v 1.233975 2.034349 -13.691290
v 0.546533 2.853612 -13.691290
v 1.256882 -0.278580 -2.903215
v 0.585180 -0.754346 -2.902432
v -0.416676 -1.840729 -12.469102
v -0.093199 -1.840729 -12.603354
v -0.282960 -1.338193 -12.474261
v 0.119469 -1.919177 -11.932933
v -0.093199 -1.978269 -12.584039
v -0.472913 -1.978269 -12.364843
v 1.522554 3.996744 13.797108
v -0.084210 3.987362 13.499529
v 2.392670 2.808229 13.499529
v 1.382159 3.638514 13.797108
v -0.678288 -1.016228 20.684484
v 0.066423 -0.214857 17.786203
v -0.235203 -1.523307 24.548765
v -1.084259 -0.849318 14.657129
v 0.736828 -1.197206 14.694001
v 1.033775 -0.985922 14.037458
v -1.172841 3.983891 14.664648
v -1.917823 3.553780 14.664648
v -2.567448 5.060548 14.213181
v -1.178351 3.999023 14.038378
v -2.152934 5.299867 14.518279
v 1.495992 -1.856158 -11.396604
v 1.465407 -1.881817 -9.786576
v -1.269245 4.340305 24.548645
v -2.178689 3.815509 24.548325
v -0.235203 1.499620 17.463589
v -1.864418 2.093961 17.785482
v -2.167355 -0.121652 14.365710
v -2.581605 0.645597 10.358498
v -2.694638 1.065950 14.659450
v -2.522202 1.096344 15.087320
v -3.407514 1.963948 -8.251934
v 1.394012 0.905271 17.785482
v 2.207390 -2.101540 -14.757269
v 1.468950 -1.878841 -15.647326
v 2.564156 -1.240957 -14.629935
v 3.842451 3.580350 13.682411
v 3.414899 3.229462 13.682411
v 3.630974 3.349885 13.337482
v 3.469128 2.880223 13.381313
v 3.381506 2.924021 13.763354
v 3.469128 2.685279 13.745998
v 2.620024 -1.456281 -12.437469
v 2.784590 -1.456273 -11.287867
v 2.725802 -0.842648 -11.823835
v 1.981437 0.692827 -22.624483
v 0.798847 4.340305 24.548645
v 2.088127 1.909279 -22.624483
v -2.479073 2.316324 -22.552576
v 4.444726 3.129683 13.983548
v 4.444726 3.330889 13.682411
v 3.956907 3.546965 13.457897
v 0.175002 -1.338193 -11.877424
v 0.004965 -1.338193 -12.511972
v 0.230470 -1.861277 -12.469262
v -3.262216 1.748993 -8.430496
v -6.773794 1.756512 -5.847791
v -6.783872 1.757655 -8.302803
v -2.278827 0.185356 -15.179181
v -2.083107 -0.050971 -15.036051
v -5.125871 -2.604155 -14.954548
v -3.294347 2.044900 23.619198
v -3.213140 0.974585 24.547724
v 1.371954 -1.237686 -4.279595
v 1.188312 -1.909051 -3.867280
v 2.742718 0.974585 24.547724
v 2.742718 2.024639 24.547724
v 2.823940 2.044899 23.619198
v -2.853838 -0.012075 24.547964
v 2.398630 -0.718265 -4.102872
v 2.773352 -1.164813 -4.102872
v 2.864333 -1.299034 -3.867280
v -2.083107 -0.050971 -17.215481
v -5.140907 -2.616753 -17.255274
v 2.185354 -0.871626 -11.396604
v 2.185354 -0.871626 -11.396604
v -2.945378 5.413987 14.831494
v -3.160310 5.171589 14.468688
v -3.115615 5.142843 14.023661
v -1.432874 0.494644 -13.691290
v -0.506689 -0.040085 -13.691290
v 1.114183 -1.456281 -10.281954
v 0.888894 -1.373970 -9.837486
v 1.026865 -1.372586 -13.711285
v 0.992864 -1.544559 -9.523911
v 1.026865 -1.539967 -13.711285
v -4.924480 -2.874700 -15.144349
v -1.737076 5.286597 13.890529
v -1.619812 5.074081 14.403542
v -2.426397 3.802152 8.924834
v -2.348853 2.711314 8.883363
v -2.871553 3.433461 8.877604
v -0.233403 -1.061466 14.694761
v -4.046773 1.142726 -10.456798
v 2.272377 -1.112928 -15.496117
v 2.224145 1.933266 10.358498
v 2.126205 1.915998 8.830495
v -3.409466 1.035820 -6.136371
v 0.709059 -0.196189 -11.942971
v 0.369001 -1.644586 -11.746651
v 1.049125 -1.644586 -11.746651
v 0.709059 -1.644586 -11.157653
v 2.456658 -2.244286 -12.091861
v 1.528266 -2.244286 -11.555851
v 2.456658 -2.244286 -11.555851
v 3.842451 3.580350 13.682411
v 3.630974 3.410545 13.953435
v -1.743379 3.297001 15.023654
v 0.255953 -0.621973 -10.002373
v -3.043046 5.637781 14.318439
v -2.543277 5.971712 14.318439
v -2.089523 5.871812 14.040777
v -1.953751 5.854455 14.318439
v 0.612686 -1.197982 14.157913
v 0.922046 -0.829306 14.157913
v 0.720128 -1.179042 13.403989
v 0.922046 -0.829306 14.157913
v 0.612686 -0.569720 14.157913
v 0.505244 -0.588660 13.403989
v 3.732393 2.473355 13.788150
v 3.842451 2.685279 14.160872
v 4.282840 2.526520 13.777592
v 4.532308 2.924021 13.601507
v 4.444726 3.330889 13.682411
v -3.409465 1.035820 -8.279848
v -2.390061 5.048271 13.548199
v 1.343520 3.381055 -1.435815
v 2.395151 -0.952625 -15.647326
v 2.620024 -1.342112 -15.647326
v 2.083527 -0.826851 -4.279595
v 1.546454 -0.718265 -4.102872
v 1.365323 -2.179931 -3.940217
v 0.608592 -1.848000 -11.492305
v 0.709059 -1.644586 -11.157653
v 1.049125 -1.644586 -11.746651
v 0.709059 -0.196189 -11.157653
v 0.709059 -1.644586 -11.157653
v -1.042074 -0.717273 -22.624483
v -0.617642 -0.669331 -22.624483
v 1.409697 -0.463422 14.694761
v 0.303326 -0.829306 13.403989
v 2.613545 -1.569297 -9.786576
v 1.895589 -0.056874 13.874171
v -2.276364 2.677977 -7.037025
v 2.564156 -1.240957 -14.629935
v 1.992458 -2.244286 -11.287867
v -1.798654 1.499620 -13.691290
v -1.432874 2.504589 -13.691290
v -0.506689 3.039326 -13.691290
v -1.619812 5.260107 14.176869
v 2.735159 3.000406 13.797108
v 2.613904 2.188885 13.797108
v 2.735159 3.000406 13.797108
v -0.403039 -1.978269 -11.835752
v -0.093199 -1.840729 -11.687863
v 0.119469 -1.919177 -12.358285
v -0.165512 -0.621973 -12.986675
v -0.400455 -1.405275 -12.750644
v 0.369001 -1.644586 -11.746651
v 3.414899 3.229462 13.682411
v 2.632221 -2.101275 -11.108944
v 2.632221 -2.101275 -12.542247
v 1.342240 -2.101275 -12.542247
v 1.342240 -0.811286 -12.542247
v 2.632221 -0.811286 -12.542247
v 2.632221 -0.811286 -11.108944
v 1.342240 -2.101275 -11.108944
v 1.342240 -0.811286 -11.108944
v 2.742718 2.024639 24.547724
v -0.171039 -1.919177 -11.855109
v 0.316396 -0.196189 -11.550332
v 0.709059 -0.196189 -11.157653
v 1.353822 -1.456273 -15.568781
v 2.075471 1.907048 15.023654
v -1.953751 5.564236 14.861367
v 2.620024 -1.987691 -12.130651
v 2.597949 -1.346007 -14.030699
v 2.620024 -1.342112 -15.647326
v -2.826371 4.951587 13.715165
v 0.303326 -0.829306 14.157913
v 0.884742 -0.726792 13.403989
v 0.720128 -1.179042 13.403989
v 0.884742 -0.726792 13.403989
v 0.303326 -0.829306 13.403989
v 0.286314 -1.338193 -12.145609
v -2.160556 3.389038 8.894081
v -2.746739 3.231974 8.894081
v -2.631754 3.661094 -6.198678
v -2.160556 3.389038 8.894081
v -2.317619 3.116990 -6.198678
v -2.160556 3.389038 -6.198678
v 0.695774 -1.456273 -12.148008
v 2.358077 0.906295 13.499529
v 3.000625 2.257199 13.797108
v 3.732193 3.126108 13.761516
v 0.109583 -1.306960 -13.064980
v 0.330817 -0.621973 -12.986675
v -0.165512 -0.621973 -12.986675
v 1.080750 -1.299033 -3.867280
v 1.824564 -2.295516 -4.102872
v -3.404338 1.965300 -6.119815
v 2.784590 -1.456273 -11.287867
v 2.620024 -1.022635 -11.390205
v 2.725802 -0.842648 -11.823835
v -3.160310 5.171589 14.468688
v 1.528266 -2.244286 -11.555851
v 2.456658 -2.244286 -12.091861
v 1.833730 -2.079680 -12.416193
v -3.775654 1.419957 -9.417852
v -3.935397 1.187405 -9.548906
v -1.887396 -0.287290 -15.179181
v 2.632221 -0.811286 -12.542247
v 1.342240 -2.101275 -12.542247
v 1.342240 -2.101275 -11.108944
v 1.342240 -2.101275 -12.542247
v 1.342240 -0.811286 -12.542247
v 2.632221 -2.101275 -12.542247
v 2.632221 -2.101275 -11.108944
v 2.632221 -0.811286 -11.108944
v 2.632221 -0.811286 -11.108944
v 2.784590 -1.920465 -11.555851
v 2.620024 -1.763089 -11.292425
v 0.043180 3.630700 13.797108
v -2.278827 0.185356 -17.086187
v 3.000625 2.257199 13.797108
v 2.693648 0.718086 13.797108
v 1.317164 0.064037 13.499529
v 2.693648 0.718086 13.797108
v 1.444562 -0.292633 13.797108
v 1.378825 -2.079680 -11.823835
v 1.685641 -2.079680 -11.292425
v 2.456658 -2.244286 -11.555851
v 2.606067 -2.079680 -11.823835
v 2.456658 -2.244286 -12.091861
v 0.286314 -1.338193 -12.145609
v 2.632221 -0.811286 -12.542247
v 1.342240 -2.101275 -11.108944
v 1.342240 -0.811286 -11.108944
v 2.620024 -1.987691 -12.130651
v 2.784590 -1.920465 -11.555851
v 2.126966 1.916134 -2.902432
v 0.884742 -0.726792 13.403989
v 0.505244 -0.588660 13.403989
v 1.522554 3.996744 13.797108
v 2.620024 -1.456281 -12.437469
v 2.725802 -0.842648 -11.823835
v 2.725802 -1.149464 -12.355245
v 2.620024 -0.842648 -11.823835
v 2.620024 -0.842648 -11.823835
v 2.299251 -2.079680 -12.355245
v 2.606067 -2.079680 -11.823835
v -2.160556 3.389038 -6.198678
v 1.992458 -2.244286 -11.287867
v 2.299250 -2.079680 -11.292425
v 2.126205 1.915998 8.830495
v 2.664055 -1.334346 -7.224866
vn -0.9972 0.0669 0.0337
vn -0.7169 -0.6628 -0.2164
vn -0.8263 -0.5632 -0.0034
vn -0.9631 -0.2692 -0.0044
vn -0.9748 0.2232 -0.0054
vn -0.9956 0.0894 0.0269
vn 0.3335 0.9427 -0.0142
vn -0.0145 0.9999 -0.0034
vn -0.0486 0.9988 -0.0034
vn 0.0246 0.9961 0.0845
vn -0.8900 0.4559 0.0015
vn -0.9732 0.2076 0.0992
vn -0.8556 0.4958 0.1490
vn 0.9657 -0.2565 -0.0405
vn 0.9604 -0.2271 0.1616
vn 0.6964 -0.6987 0.1636
vn -0.3506 0.9365 -0.0014
vn -0.6174 0.7841 0.0630
vn 0.2991 -0.7752 -0.5564
vn 0.6618 -0.7490 -0.0308
vn 0.1936 -0.9802 0.0406
vn 0.7884 -0.6149 -0.0200
vn -0.6849 0.7286 -0.0044
vn 0.5064 0.8488 0.1520
vn 0.1818 0.9833 -0.0122
vn -0.0711 0.9566 0.2827
vn -0.2841 -0.9559 -0.0747
vn -0.4013 -0.9148 -0.0454
vn -0.7792 -0.6255 -0.0405
vn -0.5334 -0.8458 0.0054
vn -0.0790 -0.9965 -0.0269
vn -0.3633 -0.9317 0.0005
vn 0.4133 0.9098 -0.0366
vn -0.4522 -0.8712 0.1910
vn -0.4856 -0.8742 -0.0044
vn -0.5971 -0.8020 0.0200
vn -0.9766 -0.2144 0.0142
vn -0.9877 0.1314 -0.0845
vn -0.9165 0.3992 -0.0259
vn -0.6937 0.6249 -0.3582
vn -0.5903 0.8011 -0.0992
vn -0.7645 -0.6313 0.1304
vn -0.5538 0.8076 0.2027
vn -0.9506 0.2390 0.1979
vn 0.0109 -0.0171 0.9998
vn -0.0077 0.0025 1.0000
vn 0.9507 -0.2389 0.1978
vn -0.5958 0.7987 -0.0835
vn 0.2141 0.9734 -0.0816
vn -0.2999 0.8236 -0.4814
vn -0.2188 -0.9133 -0.3435
vn 0.2219 -0.8338 -0.5055
vn 0.0002 -0.9968 -0.0796
vn 0.9866 -0.0864 -0.1382
vn 0.8678 -0.4959 -0.0318
vn 0.9722 -0.2330 -0.0239
vn 0.9088 -0.4167 0.0210
vn 0.8591 -0.5097 -0.0464
vn -0.9524 0.1676 0.2545
vn -0.9952 0.0894 -0.0386
vn -0.8774 0.4344 0.2038
vn -0.0966 0.9888 -0.1138
vn -0.0682 0.8055 0.5886
vn -0.5577 0.7967 0.2330
vn -0.3243 0.8049 -0.4970
vn -0.1132 -0.9439 0.3101
vn -0.2256 -0.8905 -0.3952
vn -0.4112 -0.7577 -0.5067
vn 0.9402 0.3054 0.1510
vn 0.9754 0.2204 -0.0064
vn 0.6900 0.7235 -0.0210
vn -0.5497 -0.8141 0.1870
vn -0.8821 -0.4274 0.1979
vn -0.4286 -0.6735 0.6022
vn 0.7997 0.5997 -0.0298
vn 0.6584 0.7026 0.2700
vn 0.3501 0.9358 0.0406
vn 0.9027 -0.3668 0.2251
vn 0.9762 0.1665 0.1392
vn -0.6076 -0.7939 0.0239
vn -0.6488 -0.7541 0.1021
vn -0.8916 -0.4527 -0.0112
vn 0.5493 0.8144 0.1871
vn 0.8822 0.4273 0.1978
vn 0.4281 0.6737 0.6024
vn -0.8672 -0.4733 -0.1548
vn 0.5407 0.4540 -0.7082
vn 0.5620 0.7538 -0.3405
vn 0.8881 0.4537 -0.0738
vn -0.2166 -0.9761 -0.0151
vn 0.5579 -0.8297 -0.0171
vn -0.3009 -0.9535 0.0181
vn -0.3124 0.9489 -0.0445
vn -0.8911 0.4539 -0.0005
vn -0.2743 0.9616 -0.0005
vn -0.4844 0.8748 0.0073
vn -0.1708 0.8652 -0.4714
vn -0.9878 0.0513 0.1471
vn -0.5548 0.8320 -0.0024
vn 0.9647 0.2634 0.0073
vn 0.6351 -0.7712 0.0435
vn -0.8695 -0.4911 -0.0523
vn -0.9958 0.0777 -0.0494
vn -0.9899 0.1412 0.0112
vn 0.9957 -0.0904 -0.0191
vn 0.6021 0.7979 -0.0278
vn 0.9877 -0.1441 -0.0611
vn 0.7239 -0.6872 -0.0611
vn 0.9216 -0.3806 0.0758
vn -0.2166 -0.9761 -0.0152
vn -0.2265 -0.9737 -0.0259
vn 0.5578 -0.8298 -0.0171
vn -0.6536 -0.7549 -0.0552
vn -0.3154 -0.9490 -0.0054
vn -0.2109 -0.9550 0.2086
vn 0.6344 -0.7726 0.0239
vn 0.8160 -0.5779 0.0161
vn 0.6846 -0.7289 0.0034
vn 0.3206 -0.9472 0.0064
vn -0.6370 0.3601 0.6816
vn -0.7296 0.6824 -0.0454
vn -0.0173 -0.9567 0.2906
vn 0.0343 -0.0933 0.9950
vn 0.2661 -0.9624 -0.0543
vn 0.9694 -0.2320 -0.0796
vn 0.8502 -0.0209 -0.5261
vn -0.7208 0.3102 -0.6199
vn -0.3155 0.7275 -0.6093
vn -0.0242 -0.9802 -0.1968
vn -0.2909 -0.9567 0.0064
vn -0.4473 0.3805 -0.8094
vn 0.0920 0.3043 -0.9481
vn 0.1232 -0.6733 -0.7290
vn 0.3939 0.9162 0.0738
vn 0.2552 0.9669 -0.0044
vn -0.3573 0.8892 0.2857
vn -0.6974 0.7166 -0.0054
vn -0.7490 0.2740 0.6032
vn -0.2237 0.8361 -0.5009
vn 0.7418 0.6688 -0.0484
vn 0.9720 0.2300 -0.0474
vn 0.9598 0.1022 0.2614
vn 0.1935 0.9811 -0.0015
vn 0.9230 0.3847 -0.0112
vn 0.9994 -0.0229 0.0259
vn -0.4797 -0.7043 -0.5234
vn -0.8719 0.0005 -0.4897
vn -0.9962 0.0484 -0.0728
vn -0.7014 -0.7118 0.0366
vn -0.3699 -0.9281 -0.0425
vn 0.1155 -0.9925 -0.0396
vn -0.9516 0.2907 0.0992
vn -0.9938 -0.1090 -0.0239
vn -0.7296 -0.1793 0.6599
vn 0.7298 0.1792 0.6598
vn -0.8942 0.4364 -0.1002
vn -0.8895 -0.4556 0.0347
vn -0.8697 0.4814 0.1090
vn -0.8146 -0.5798 -0.0171
vn -0.9740 -0.1851 0.1305
vn -0.8168 0.5594 -0.1412
vn -0.4491 0.8785 -0.1627
vn -0.4248 0.2672 -0.8650
vn 0.1623 0.1675 0.9724
vn -0.7153 0.6281 0.3064
vn -0.5039 -0.5955 0.6257
vn -0.4736 0.7971 -0.3746
vn -0.7485 -0.5166 0.4159
vn -0.5707 -0.8000 0.1852
vn -0.4786 -0.6660 -0.5721
vn -0.3934 -0.6862 0.6119
vn -0.9742 0.1490 -0.1695
vn -0.3241 0.9460 -0.0054
vn 0.5534 -0.8079 0.2025
vn -0.0731 -0.9781 0.1948
vn 0.1722 -0.7158 0.6767
vn -0.0067 -0.9562 -0.2927
vn 0.6576 -0.7527 -0.0317
vn 0.4594 -0.5955 -0.6590
vn 0.0050 -0.9550 -0.2966
vn -0.6874 0.7261 -0.0181
vn -0.5859 0.5592 0.5865
vn -0.9681 -0.0014 0.2506
vn -0.9416 0.3326 0.0523
vn 0.5210 -0.1901 -0.8321
vn -0.1220 -0.0210 0.9923
vn -0.3202 0.1685 0.9322
vn 0.1819 0.4060 0.8956
vn -0.3409 0.5213 0.7823
vn 0.1516 0.4686 0.8703
vn 0.3861 0.9209 -0.0542
vn -0.8604 0.4927 0.1304
vn -0.5986 0.7994 -0.0513
vn -0.7648 0.5964 -0.2437
vn 0.7849 0.6191 -0.0269
vn 0.6486 0.6763 -0.3491
vn 0.4869 0.8732 0.0220
vn -0.7807 -0.5086 -0.3631
vn 0.6281 0.7730 0.0894
vn -0.1503 0.9886 0.0132
vn 0.1613 0.7436 -0.6489
vn 0.9245 -0.1412 -0.3541
vn 0.7742 -0.6299 0.0611
vn 0.2318 -0.9671 0.1051
vn 0.0588 -0.9981 -0.0190
vn 0.4641 -0.8855 -0.0239
vn -0.7318 -0.6063 0.3113
vn 0.0002 0.0014 1.0000
vn 0.9392 0.3435 -0.0005
vn 0.7951 0.2203 -0.5650
vn 0.8151 0.5790 -0.0200
vn 0.7260 0.5924 -0.3492
vn 0.0002 -0.0005 -1.0000
vn 0.6177 -0.7822 -0.0816
vn 0.7924 -0.5944 -0.1372
vn 0.2787 -0.7813 -0.5585
vn 0.1809 -0.9762 0.1197
vn -0.7944 0.3406 -0.5028
vn -0.1972 0.2213 -0.9551
vn -0.2890 0.7557 -0.5877
vn -0.1171 -0.6764 0.7272
vn 0.2590 -0.0259 0.9655
vn 0.5689 -0.5535 0.6083
vn 0.5863 -0.2037 -0.7840
vn 0.3050 0.4724 -0.8270
vn 0.8656 -0.5007 0.0005
vn -0.4805 0.5818 -0.6561
vn -0.9717 -0.2320 0.0455
vn -0.7610 0.2203 -0.6102
vn -0.7704 0.5415 -0.3365
vn -0.3779 0.9128 0.1548
vn 0.1761 0.9614 0.2116
vn -0.9119 0.0328 -0.4091
vn -0.0878 -0.9943 0.0601
vn -0.3465 0.9380 -0.0083
vn -0.2675 0.8180 -0.5093
vn 0.3089 -0.9510 0.0132
vn -0.3078 -0.9506 0.0396
vn -0.8142 -0.5372 -0.2204
vn -0.5262 -0.8502 0.0161
vn -0.0770 -0.2369 -0.9685
vn 0.6920 0.0669 -0.7188
vn 0.2864 0.4957 -0.8199
vn 0.6729 -0.2768 0.6859
vn 0.1653 0.0610 0.9844
vn 0.5021 0.5649 0.6548
vn -0.1523 -0.1803 0.9718
vn -0.0742 -0.2654 0.9613
vn -0.2168 0.3884 0.8956
vn 0.0822 0.6298 0.7724
vn 0.9116 -0.4108 0.0151
vn 0.9730 0.2300 -0.0200
vn -0.6945 0.6160 -0.3718
vn -0.7699 0.4099 0.4891
vn -0.0370 -0.9738 -0.2242
vn 0.6321 -0.7730 -0.0542
vn 0.8583 0.4911 0.1491
vn 0.0119 0.0191 0.9997
vn -0.1092 0.9535 0.2810
vn 0.0148 -0.0122 0.9998
vn 0.2551 -0.9450 0.2047
vn -0.1894 0.9809 -0.0435
vn -0.4522 0.8681 0.2048
vn 0.3792 -0.8447 -0.3776
vn 0.0773 0.7652 -0.6391
vn 0.3990 0.8216 0.4071
vn -0.7265 -0.6509 -0.2203
vn -0.1161 -0.1832 -0.9762
vn 0.9761 0.1666 0.1392
vn 0.9816 0.1882 -0.0327
vn 0.9780 0.2057 -0.0337
vn 0.0852 -0.6171 -0.7822
vn -0.6064 -0.7886 -0.1021
vn 0.7536 -0.6014 -0.2653
vn -0.9427 0.0513 -0.3297
vn -0.7240 -0.0767 0.6855
vn -0.1494 -0.8862 -0.4385
vn 0.6108 -0.5359 -0.5828
vn -0.6381 0.1559 0.7540
vn -0.0653 0.6670 0.7422
vn -0.8494 0.3172 0.4218
vn -0.5090 0.3053 0.8048
vn -0.9993 0.0375 -0.0063
vn 0.5569 -0.6598 0.5045
vn 0.9971 0.0660 -0.0367
vn 0.3098 -0.9363 -0.1655
vn -0.6223 -0.3122 0.7178
vn -0.8262 -0.5602 0.0591
vn -0.4632 -0.8558 0.2302
vn -0.4043 -0.7791 -0.4792
vn -0.3398 0.8144 -0.4704
vn 0.1467 0.7244 -0.6736
vn 0.4566 0.5146 -0.7257
vn 0.4605 -0.6436 0.6113
vn -0.5648 -0.6299 0.5331
vn 0.9841 0.0288 0.1754
vn 0.7019 0.0220 -0.7120
vn -0.6351 0.5146 -0.5761
vn -0.5461 0.8369 0.0366
vn 0.9230 0.3846 -0.0112
vn 0.6087 -0.7916 -0.0542
vn 0.0119 -0.8316 -0.5552
vn 0.3969 -0.7001 -0.5936
vn -0.4355 -0.5387 -0.7213
vn -0.6847 -0.2066 -0.6990
vn -0.7464 0.6630 0.0572
vn -0.1591 0.9872 -0.0092
vn -0.1542 0.7467 0.6471
vn 0.6116 0.7877 0.0738
vn 0.9713 0.0103 -0.2378
vn 0.8963 0.1930 0.3992
vn -0.6830 -0.7266 -0.0748
vn -0.7435 -0.2712 -0.6113
vn -0.3528 -0.7005 -0.6204
vn 0.6829 -0.7067 -0.1851
vn 0.2698 -0.8473 -0.4576
vn -0.6679 -0.0278 -0.7437
vn -0.0282 0.0278 -0.9992
vn -0.6430 0.2136 -0.7355
vn -0.1768 -0.9583 -0.2243
vn 0.0031 -0.8113 -0.5847
vn -0.4189 -0.8835 -0.2096
vn 0.1683 0.3534 -0.9202
vn 0.1682 0.3533 -0.9203
vn 0.1682 0.3533 -0.9202
vn -0.2948 -0.6198 0.7273
vn 0.0725 0.9782 0.1949
vn -0.1718 0.7159 0.6768
vn 0.0060 -0.0318 0.9995
vn -0.4043 -0.9013 0.1558
vn 0.2306 -0.9274 0.2945
vn 0.5388 -0.7454 -0.3926
vn -0.0369 0.7980 0.6016
vn -0.6536 0.4061 0.6386
vn -0.9892 0.1460 0.0122
vn 0.1593 0.7301 -0.6646
vn 0.5877 0.8079 0.0435
vn -0.7519 -0.6589 -0.0211
vn -0.7937 -0.2683 0.5460
vn -0.0087 0.0142 0.9999
vn 0.0001 -0.0003 1.0000
vn 0.6401 -0.3639 0.6766
vn -0.7764 -0.6100 0.1587
vn -0.9243 -0.3806 -0.0278
vn -0.9642 -0.2145 0.1559
vn -0.9535 -0.2370 0.1861
vn 0.1047 0.9775 -0.1832
vn -0.6399 0.3640 0.6767
vn 0.2728 -0.9256 0.2623
vn -0.6125 -0.3953 -0.6845
vn 0.9697 0.2312 0.0787
vn -0.1376 0.9883 0.0659
vn -0.8940 0.4480 -0.0113
vn -0.5068 0.5465 -0.6667
vn -0.8257 -0.2575 -0.5019
vn -0.8912 -0.2390 0.3855
vn -0.7612 -0.6485 0.0074
vn 0.9747 -0.0416 -0.2194
vn 0.9468 0.0494 0.3180
vn 0.8315 0.5466 0.0992
vn 0.8078 -0.3296 -0.4888
vn -0.0057 -0.0318 0.9995
vn 0.7370 0.2155 -0.6406
vn -0.9079 0.1549 -0.3896
vn 0.8579 0.1998 0.4734
vn 0.7566 0.6484 -0.0845
vn 0.1126 0.9124 -0.3934
vn 0.5286 0.2007 0.8248
vn 0.5502 0.1890 -0.8134
vn 0.6811 0.0073 -0.7322
vn -0.2695 0.5368 -0.7995
vn -0.7042 0.1402 0.6961
vn -0.8599 0.0758 -0.5048
vn -0.8270 0.0122 0.5620
vn -0.2764 -0.1158 0.9541
vn -0.3694 -0.0621 0.9272
vn -0.9979 0.0572 -0.0318
vn 0.0559 -0.9749 0.2155
vn 0.4905 -0.0894 0.8668
vn -0.1445 0.0063 0.9895
vn 0.0314 -0.0005 0.9995
vn 0.9754 0.2203 -0.0063
vn -0.0077 -0.0024 1.0000
vn -0.3418 -0.5506 0.7616
vn -0.8124 -0.1841 0.5533
vn 0.9598 0.1021 0.2614
vn -0.2314 -0.3229 -0.9177
vn -0.1190 -0.3746 -0.9195
vn 0.9957 -0.0904 -0.0190
vn 0.3598 0.9329 -0.0161
vn -0.6378 0.3170 0.7019
vn -0.9821 -0.0005 0.1882
vn -0.9009 -0.2086 -0.3807
vn 0.5709 0.5380 -0.6201
vn 0.1174 0.6687 -0.7342
vn 0.9689 0.1500 -0.1969
vn -0.2969 0.9543 0.0327
vn -0.4189 0.8453 -0.3316
vn -0.6426 -0.7048 0.3004
vn -0.2704 -0.9489 -0.1626
vn -0.1005 -0.7752 0.6237
vn 0.7847 0.3131 -0.5349
vn 0.9202 -0.1900 0.3423
vn 0.0001 0.9678 -0.2516
vn -0.9640 0.2066 -0.1676
vn -0.8976 0.2750 -0.3444
vn 0.0148 -0.8974 0.4411
vn 0.4327 -0.7358 0.5209
vn -0.1288 -0.2134 -0.9684
vn 0.9816 0.1881 -0.0327
vn 0.9781 0.2056 -0.0337
vn 0.0206 -0.7006 0.7133
vn 0.6771 0.1177 -0.7264
vn -0.8622 -0.1333 -0.4888
vn 0.8472 0.1294 -0.5153
vn 0.8360 0.2615 0.4824
vn 0.3881 -0.8624 -0.3249
vn -0.3651 -0.9226 0.1246
vn 0.4905 -0.8239 0.2838
vn -0.1376 0.9883 0.0660
vn -0.5656 0.6943 0.4451
vn -0.6017 0.7587 0.2497
vn 0.4868 -0.1666 0.8575
vn -0.7464 0.6630 0.0571
vn -0.1591 0.9872 -0.0093
vn 0.3647 0.8282 -0.4256
vn 0.6116 0.7877 0.0737
vn -0.2997 -0.9540 -0.0083
vn 0.9661 0.2583 -0.0005
vn 0.5188 -0.8532 -0.0542
vn -0.3331 0.9429 -0.0073
vn 0.0920 0.9950 0.0396
vn -0.3418 -0.8408 0.4197
vn -0.1660 -0.5955 0.7860
vn 0.5304 -0.8296 0.1743
vn 0.9866 -0.1362 -0.0903
vn 0.7566 0.6484 -0.0846
vn -0.0359 -0.9859 -0.1636
vn -0.0155 -0.3395 -0.9405
vn 0.5834 0.8114 -0.0357
vn 0.6098 0.4011 -0.6835
vn 0.0930 0.0542 -0.9942
vn -0.0594 -0.3745 0.9253
vn 0.4153 -0.6696 0.6158
vn -0.5930 -0.6836 0.4256
vn -0.1357 -0.9876 0.0787
vn 0.8359 0.2616 0.4825
vn -0.4258 -0.0903 0.9003
vn 0.8360 0.2615 0.4825
vn -0.1825 -0.5017 -0.8456
vn 0.2395 0.6591 -0.7129
vn 0.6877 -0.5953 0.4156
vn -0.9430 -0.3327 -0.0073
vn 0.7916 -0.5945 0.1412
vn -0.7110 0.4235 -0.5613
vn 0.9697 0.2311 0.0787
vn 0.0001 -0.7124 0.7017
vn 0.7831 0.0445 -0.6203
vn 0.6285 -0.4696 -0.6201
vn 0.1799 -0.7637 -0.6200
vn 0.9712 0.0103 -0.2379
vn 0.0002 -0.0005 1.0000
vn 0.0001 -0.0005 1.0000
vn 0.0001 -0.0004 1.0000
vn -0.5362 -0.7850 0.3102
vn -0.1473 -0.3218 0.9353
vn -0.1220 -0.9778 0.1705
vn -0.4701 0.0239 -0.8823
vn -0.7044 -0.3846 -0.5966
vn -0.8622 -0.1333 -0.4887
vn -0.8939 0.4480 -0.0112
vn 0.0001 -1.0000 -0.0005
vn 0.0002 1.0000 -0.0005
vn 0.0001 1.0000 -0.0005
vn 0.0315 -0.0005 0.9995
vn 0.0373 -0.8864 -0.4615
vn -0.9994 -0.0357 -0.0024
vn -0.4259 -0.0903 0.9003
vn -0.4267 0.0660 -0.9020
vn 0.9754 0.2203 -0.0064
vn 0.9402 0.3053 0.1510
vn 0.5180 0.5183 0.6805
vn 0.8790 -0.4618 -0.1188
vn -0.5721 -0.1997 -0.7955
vn -0.9962 0.0874 -0.0004
vn 0.9356 -0.3407 -0.0922
vn 0.5188 -0.8532 -0.0541
vn 0.9356 -0.3409 -0.0923
vn -0.9430 -0.3328 -0.0073
vn 0.9911 0.0278 -0.1305
vn 0.9656 0.2585 0.0288
vn -0.8659 -0.4999 0.0190
vn -0.4249 0.9052 0.0034
vn 0.9656 0.2584 0.0288
vn 0.1311 -0.9914 -0.0034
vn 0.9660 0.2585 0.0004
vn -0.9855 -0.1616 -0.0522
vn -0.7878 0.0142 0.6157
vn 0.2414 -0.2416 -0.9399
vn 0.2413 -0.2416 -0.9399
vn 0.0851 -0.6171 -0.7822
vn 0.7019 0.0220 -0.7119
vn -0.4701 0.0240 -0.8823
vn 0.2063 -0.1812 0.9616
vn 0.1731 0.7023 0.6905
vn -0.0604 0.5720 0.8180
vn 0.2473 0.6277 0.7381
vn 0.8315 0.5465 0.0992
vn -0.9821 -0.0005 0.1881
vn -0.3651 -0.9226 0.1245
vn 0.3881 -0.8624 -0.3250
vn -0.1582 -0.9123 -0.3777
vn -0.3202 0.1314 0.9382
vn -0.9742 0.1490 -0.1696
vn 0.0236 0.1490 -0.9885
vn 0.3236 -0.8887 0.3249
vn -0.0000 1.0000 -0.0005
vn 0.0002 -1.0000 -0.0005
vn 0.0002 1.0000 -0.0004
vn -0.0000 1.0000 -0.0004
vn 0.0001 -1.0000 -0.0004
vn 0.6916 -0.6333 0.3472
vn -0.0203 -0.5174 0.8555
vn -0.9613 -0.2536 0.1079
vn -0.8732 0.3307 -0.3580
vn 0.2413 -0.2417 -0.9399
vn 0.4514 -0.8561 0.2515
vn 0.4026 -0.4977 -0.7682
vn 0.4514 -0.8562 0.2515
vn -0.4024 0.4977 0.7684
vn -0.8280 -0.5465 0.1255
vn -0.4852 -0.2417 0.8403
vn 0.4905 -0.8239 0.2837
vn 0.9703 -0.2418 0.0005
vn 0.9911 0.0279 -0.1305
vn -0.0000 -1.0000 -0.0005
vn -0.0000 -1.0000 -0.0004
vn 0.8789 -0.4619 -0.1188
vn 0.9357 -0.3406 -0.0923
vn 0.0920 0.9950 0.0395
vn 0.1682 0.3532 -0.9203
vn 0.9748 -0.0415 -0.2194
vn 0.0646 0.7932 -0.6056
vn -0.3486 0.9129 -0.2125
vn 0.5776 -0.4910 -0.6522
vn 0.9660 0.2586 0.0004
vn 0.0002 -0.7124 0.7017
vn 0.4847 -0.2418 0.8406
vt 0.282572 0.895322
vt 0.262825 0.894380
vt 0.299028 0.798499
vt 0.272698 0.798477
vt 0.233204 0.798477
vt 0.233204 0.715870
vt 0.101556 0.798499
vt 0.127885 0.704069
vt 0.127885 0.798499
vt 0.114720 0.982493
vt 0.206874 0.522925
vt 0.233204 0.608814
vt 0.206874 0.608814
vt 0.447955 0.522927
vt 0.470171 0.614197
vt 0.417511 0.608814
vt 0.154215 0.798499
vt 0.180544 0.982507
vt 0.391182 0.798499
vt 0.417511 0.982507
vt 0.378017 0.982493
vt 0.430676 0.522933
vt 0.180544 0.522933
vt 0.088391 0.608814
vt 0.114720 0.522925
vt 0.127885 0.608814
vt 0.338522 0.688324
vt 0.338522 0.703519
vt 0.285863 0.704069
vt 0.312193 0.715870
vt 0.364852 0.703519
vt 0.338522 0.798499
vt 0.088391 0.704069
vt 0.312193 0.894828
vt 0.312193 0.798499
vt 0.312193 0.982507
vt 0.259533 0.982503
vt 0.246313 0.894562
vt 0.220039 0.894455
vt 0.229914 0.892221
vt 0.232395 0.894443
vt 0.260217 0.884966
vt 0.129685 0.953185
vt 0.027075 0.830900
vt 0.244042 0.690949
vt 0.354710 0.612336
vt 0.327684 0.574252
vt 0.465662 0.671267
vt 0.096346 0.929874
vt 0.326194 0.970402
vt 0.205845 0.980905
vt 0.205845 0.521262
vt 0.363052 0.548982
vt 0.246369 0.517689
vt 0.447955 0.798482
vt 0.443841 0.786676
vt 0.470171 0.704069
vt 0.457006 0.982493
vt 0.443841 0.798499
vt 0.233204 0.647590
vt 0.246369 0.688324
vt 0.206874 0.647590
vt 0.124594 0.671305
vt 0.234814 0.891832
vt 0.234821 0.891840
vt 0.234814 0.892990
vt 0.257853 0.891835
vt 0.257853 0.892994
vt 0.257860 0.893002
vt 0.022567 0.609056
vt 0.022567 0.522925
vt 0.075226 0.522925
vt 0.129685 0.548982
vt 0.027075 0.671267
vt 0.158856 0.599507
vt 0.062061 0.688324
vt 0.075226 0.647590
vt 0.104847 0.671305
vt 0.457006 0.659951
vt 0.496500 0.650353
vt 0.312193 0.522925
vt 0.312193 0.614197
vt 0.285863 0.522925
vt 0.363052 0.953185
vt 0.465662 0.830900
vt 0.333881 0.902660
vt 0.285863 0.903660
vt 0.448494 0.867781
vt 0.338522 0.852641
vt 0.417511 0.852641
vt 0.325357 0.895979
vt 0.141050 0.733964
vt 0.220039 0.784936
vt 0.141050 0.784936
vt 0.171751 0.891985
vt 0.180545 0.892206
vt 0.240788 0.883986
vt 0.141050 0.852641
vt 0.220039 0.852641
vt 0.167380 0.895979
vt 0.496500 0.895979
vt 0.417511 0.895979
vt 0.285863 0.649552
vt 0.233204 0.649526
vt 0.233204 0.547969
vt 0.048896 0.784936
vt 0.447955 0.733971
vt 0.088391 0.733964
vt 0.447955 0.649533
vt 0.430676 0.649526
vt 0.443841 0.547969
vt 0.338522 0.784936
vt 0.338522 0.733964
vt 0.417511 0.784936
vt 0.312193 0.688324
vt 0.338522 0.522933
vt 0.351687 0.608814
vt 0.417511 0.715870
vt 0.443841 0.704069
vt 0.420802 0.671217
vt 0.391182 0.704069
vt 0.309424 0.557597
vt 0.193709 0.649552
vt 0.305610 0.749297
vt 0.377366 0.574549
vt 0.391182 0.649526
vt 0.476217 0.710555
vt 0.479735 0.751083
vt 0.081899 0.810946
vt 0.158856 0.902660
vt 0.364852 0.798499
vt 0.338522 0.983200
vt 0.067599 0.901089
vt 0.276761 0.923450
vt 0.305610 0.986264
vt 0.114720 0.908069
vt 0.022567 0.895979
vt 0.114720 0.895979
vt 0.180555 0.891747
vt 0.193709 0.798477
vt 0.233218 0.891743
vt 0.233204 0.892285
vt 0.062061 0.649552
vt 0.022567 0.649526
vt 0.017784 0.612026
vt 0.127885 0.714579
vt 0.078517 0.714572
vt 0.483335 0.982493
vt 0.013002 0.751083
vt 0.016520 0.791612
vt 0.299028 0.714579
vt 0.338522 0.649552
vt 0.364852 0.714579
vt 0.206869 0.696062
vt 0.259533 0.704069
vt 0.081899 0.691221
vt 0.410838 0.810946
vt 0.233204 0.908069
vt 0.285863 0.920329
vt 0.206874 0.920345
vt 0.299028 0.852641
vt 0.246369 0.895979
vt 0.234814 0.893204
vt 0.233204 0.894377
vt 0.234814 0.893928
vt 0.234814 0.894206
vt 0.234235 0.894270
vt 0.258458 0.894283
vt 0.234821 0.892995
vt 0.257859 0.891844
vt 0.259533 0.893679
vt 0.257853 0.893053
vt 0.257853 0.891832
vt 0.246090 0.893677
vt 0.154215 0.522933
vt 0.276761 0.578717
vt 0.308901 0.896768
vt 0.312193 0.895326
vt 0.308901 0.896769
vt 0.285863 0.896391
vt 0.289154 0.894905
vt 0.289154 0.894904
vt 0.220039 0.982507
vt 0.425138 0.601078
vt 0.246369 0.751083
vt 0.112292 0.863587
vt 0.085786 0.543205
vt 0.142696 0.523026
vt 0.101556 0.649552
vt 0.220039 0.714579
vt 0.180544 0.714579
vt 0.246369 0.733964
vt 0.062061 0.982493
vt 0.075226 0.798499
vt 0.088391 0.982493
vt 0.067599 0.601078
vt 0.062061 0.920345
vt 0.141050 0.920345
vt 0.160283 0.754656
vt 0.244042 0.927915
vt 0.430676 0.920345
vt 0.378017 0.608814
vt 0.364852 0.522933
vt 0.404346 0.522933
vt 0.354292 0.721995
vt 0.332358 0.742259
vt 0.035731 0.982507
vt 0.022567 0.798477
vt 0.062061 0.704069
vt 0.062061 0.798477
vt 0.396391 0.572293
vt 0.246369 0.899188
vt 0.201937 0.780704
vt 0.261179 0.780704
vt 0.068644 0.602979
vt 0.113075 0.721463
vt 0.068644 0.721463
vt 0.305610 0.721463
vt 0.364852 0.780704
vt 0.305610 0.839946
vt 0.142696 0.839946
vt 0.083454 0.780704
vt 0.430676 0.714579
vt 0.265216 0.768516
vt 0.259533 0.928809
vt 0.448494 0.634386
vt 0.180544 0.668294
vt 0.180539 0.696062
vt 0.114720 0.669988
vt 0.289154 0.896768
vt 0.312193 0.895323
vt 0.154215 0.703932
vt 0.180488 0.704069
vt 0.391182 0.908069
vt 0.338522 0.920329
vt 0.272698 0.908085
vt 0.338522 0.908069
vt 0.157506 0.721463
vt 0.127885 0.869567
vt 0.083454 0.810325
vt 0.335231 0.899188
vt 0.424094 0.839946
vt 0.252811 0.891758
vt 0.252838 0.891758
vt 0.233216 0.891758
vt 0.187120 0.891758
vt 0.457006 0.908073
vt 0.022567 0.908069
vt 0.207713 0.892203
vt 0.229882 0.891758
vt 0.364868 0.669539
vt 0.417482 0.669541
vt 0.046570 0.574252
vt 0.187127 0.515903
vt 0.256928 0.721995
vt 0.278862 0.742259
vt 0.127885 0.649552
vt 0.191839 0.526938
vt 0.258458 0.893052
vt 0.234814 0.892987
vt 0.233204 0.893736
vt 0.257853 0.893751
vt 0.252826 0.893080
vt 0.022567 0.650353
vt 0.022567 0.688428
vt 0.246369 0.514591
vt 0.246369 0.514689
vt 0.056854 0.750823
vt 0.388549 0.750707
vt 0.009402 0.750503
vt 0.216748 0.751083
vt 0.172316 0.869567
vt 0.379662 0.632600
vt 0.424094 0.751083
vt 0.266116 0.514117
vt 0.360725 0.949602
vt 0.474374 0.752143
vt 0.131854 0.949429
vt 0.479096 0.985931
vt 0.048023 0.636568
vt 0.350042 0.662221
vt 0.246369 0.602979
vt 0.261179 0.691842
vt 0.201937 0.691842
vt 0.175712 0.930322
vt 0.085786 0.780172
vt 0.435883 0.751007
vt 0.246309 0.514667
vt 0.435942 0.750707
vt 0.222638 0.938986
vt 0.167380 0.908073
vt 0.496500 0.714579
vt 0.430676 0.733964
vt 0.267016 0.970618
vt 0.354292 0.958962
vt 0.369180 0.909475
vt 0.483335 0.602979
vt 0.483335 0.721463
vt 0.424094 0.721463
vt 0.483335 0.839946
vt 0.483335 0.928809
vt 0.409283 0.928809
vt 0.096346 0.572293
vt 0.417511 0.798499
vt 0.391182 0.798477
vt 0.407231 0.591016
vt 0.245839 0.524138
vt 0.167380 0.514117
vt 0.084517 0.912935
vt 0.246369 0.522054
vt 0.444714 0.636569
vt 0.009402 0.566776
vt 0.127885 0.514117
vt 0.246369 0.619435
vt 0.364852 0.566776
vt 0.286892 0.980905
vt 0.215976 0.923450
vt 0.338682 0.647847
vt 0.391187 0.650376
vt 0.414138 0.669526
vt 0.154215 0.648585
vt 0.180544 0.648585
vt 0.177253 0.667149
vt 0.154215 0.668294
vt 0.157506 0.652753
vt 0.299028 0.784936
vt 0.299028 0.733964
vt 0.240204 0.522941
vt 0.288468 0.543205
vt 0.410838 0.691221
vt 0.299028 0.659951
vt 0.272698 0.688324
vt 0.259533 0.647590
vt 0.259533 0.608814
vt 0.234814 0.892983
vt 0.391182 0.928809
vt 0.362083 0.944569
vt 0.035731 0.920345
vt 0.009402 0.721463
vt 0.009402 0.573358
vt 0.068644 0.662221
vt 0.157506 0.602979
vt 0.305610 0.543738
vt 0.261179 0.602979
vt 0.246369 0.514117
vt 0.246369 0.988050
vt 0.041149 0.632600
vt 0.242041 0.909475
vt 0.134049 0.522941
vt 0.254751 0.848992
vt 0.250742 0.947760
vt 0.394473 0.899188
vt 0.483335 0.899188
vt 0.039023 0.751083
vt 0.424094 0.514117
vt 0.108138 0.514117
vt 0.084500 0.589678
vt 0.239647 0.893078
vt 0.239672 0.891758
vt 0.239673 0.893078
vt 0.299028 0.894765
vt 0.233204 0.522925
vt 0.367875 0.652864
vt 0.367178 0.690949
vt 0.243345 0.652864
vt 0.254751 0.612026
vt 0.496500 0.522925
vt 0.027076 0.671267
vt 0.299028 0.896895
vt 0.101556 0.784936
vt 0.101556 0.852641
vt 0.394473 0.632600
vt 0.350042 0.543738
vt 0.142696 0.573358
vt 0.380445 0.863587
vt 0.246369 0.740715
vt 0.236495 0.717002
vt 0.236495 0.906558
vt 0.256242 0.717002
vt 0.256242 0.906558
vt 0.308901 0.894904
vt 0.113075 0.899188
vt 0.290800 0.958429
vt 0.182260 0.703519
vt 0.207604 0.703981
vt 0.200570 0.703519
vt 0.364891 0.650326
vt 0.257853 0.893723
vt 0.114036 0.593375
vt 0.496500 0.688428
vt 0.496500 0.704069
vt 0.257853 0.891841
vt 0.325357 0.988050
vt 0.167380 0.988050
vt 0.009402 0.988050
vt 0.451588 0.869567
vt 0.041149 0.869567
vt 0.438904 0.662221
vt 0.180544 0.614197
vt 0.483335 0.750503
vt 0.009402 0.602979
vt 0.039023 0.810325
vt 0.009402 0.839946
vt 0.364852 0.703690
vt 0.496500 0.703690
vt 0.391182 0.988050
vt 0.022567 0.703690
vt 0.127885 0.703690
vt 0.154215 0.988050
vt 0.320421 0.721463
vt 0.261179 0.839946
vt 0.187127 0.958429
vt 0.009402 0.899188
vt 0.257853 0.892999
vt 0.142696 0.751083
vt 0.075226 0.786676
vt 0.017784 0.848992
vt 0.215976 0.578717
vt 0.322717 0.574549
vt 0.281375 0.690450
vt 0.483335 0.751083
vt 0.127885 0.956303
vt 0.483335 0.514117
vt 0.483335 0.988050
vt 0.332358 0.979226
vt 0.417496 0.650326
vt 0.233204 0.988050
vt 0.470171 0.852641
vt 0.437698 0.670329
vt 0.206889 0.892202
vt 0.272698 0.920345
vt 0.421394 0.751083
vt 0.380446 0.638580
vt 0.098264 0.958429
vt 0.483335 0.619435
vt 0.364852 0.645765
vt 0.009402 0.619435
vt 0.408220 0.912935
vt 0.246898 0.980149
vt 0.084517 0.589232
vt 0.246428 0.514777
vt 0.127885 0.545864
vt 0.483335 0.573358
vt 0.009402 0.514117
vt 0.305610 0.972176
vt 0.364852 0.514117
vt 0.496500 0.609056
vt 0.409283 0.839946
vt 0.451588 0.632600
vt 0.496500 0.908069
vt 0.157506 0.662221
vt 0.233204 0.703690
vt 0.496500 0.988050
vt 0.165321 0.973759
vt 0.479735 0.709935
vt 0.285863 0.514117
vt 0.404346 0.988050
vt 0.246369 0.843572
vt 0.246369 0.698424
vt 0.009402 0.645765
vt 0.482861 0.751083
vt 0.246949 0.988050
vt 0.246949 0.514117
vt 0.234735 0.891833
vt 0.364852 0.988050
vt 0.083454 0.514117
vt 0.285863 0.988050
vt 0.048896 0.988050
vt 0.147632 0.514117
vt 0.247770 0.893590
vt 0.257853 0.893678
vt 0.308901 0.894905
vt 0.325357 0.514117
vt 0.483335 0.645765
vt 0.009402 0.698424
vt 0.483335 0.698424
vt 0.443841 0.988050
vt 0.206874 0.514117
vt 0.496500 0.798477
vt 0.327416 0.528408
vt 0.483335 0.566776
vt 0.009402 0.751083
vt 0.088391 0.751083
vt 0.088391 0.514117
vt 0.404346 0.514117
vt 0.022567 0.695698
vt 0.496500 0.649526
s 1
f 1/1/1 3/3/3 2/2/2
f 4/4/4 6/6/6 5/5/5
f 7/7/7 9/9/9 8/8/8
f 10/10/10 9/9/9 7/7/7
f 11/11/11 13/13/13 12/12/12
f 14/14/14 16/16/16 15/15/15
f 17/17/17 10/10/10 18/18/18
f 19/19/19 21/21/21 20/20/20
f 16/16/16 14/14/14 22/22/22
f 11/11/11 23/23/23 13/13/13
f 24/24/24 26/26/26 25/25/25
f 27/27/27 29/29/29 28/28/28
f 30/30/30 32/32/32 31/31/31
f 33/33/33 7/7/7 8/8/8
f 34/34/34 36/36/36 35/35/35
f 37/37/37 1/1/1 38/38/38
f 39/39/39 41/41/41 40/40/40
f 2/2/2 3/3/3 42/42/42
f 43/43/43 45/45/45 44/44/44
f 46/46/46 48/48/47 47/47/46
f 49/49/48 51/51/50 50/50/49
f 52/52/51 54/54/53 53/53/52
f 55/55/54 57/57/56 56/56/55
f 58/58/57 55/55/54 59/59/58
f 60/60/59 62/62/61 61/61/60
f 63/63/62 33/33/33 8/8/8
f 64/64/63 66/66/65 65/65/64
f 67/67/66 69/69/68 68/68/67
f 70/70/69 72/72/71 71/71/70
f 73/73/72 75/75/74 74/74/73
f 76/76/75 78/78/77 77/77/76
f 57/57/56 80/80/79 79/79/78
f 81/81/80 83/83/82 82/82/81
f 84/84/83 86/86/85 85/85/84
f 87/87/86 37/37/37 36/36/36
f 88/85/87 90/88/89 89/84/88
f 91/89/90 93/91/92 92/90/91
f 94/92/93 96/94/95 95/93/94
f 18/18/18 98/96/97 97/95/96
f 99/97/98 4/4/4 5/5/5
f 100/98/95 102/100/99 101/99/94
f 92/90/91 104/102/101 103/101/100
f 105/103/102 107/105/104 106/104/103
f 108/106/100 110/108/106 109/107/105
f 111/109/107 113/111/109 112/110/108
f 114/112/110 116/114/112 115/113/111
f 29/29/29 27/27/27 117/115/113
f 118/116/114 82/82/81 119/117/115
f 120/118/116 56/56/55 121/119/117
f 122/120/118 123/121/119 121/119/117
f 124/122/120 125/123/121 107/105/104
f 126/124/122 128/126/124 127/125/123
f 90/88/89 130/128/126 129/127/125
f 131/129/127 49/49/48 132/130/128
f 32/32/32 133/131/129 31/31/31
f 134/132/130 133/131/129 32/32/32
f 135/133/131 137/135/133 136/134/132
f 138/136/134 140/138/135 139/137/100
f 141/139/136 143/141/138 142/140/137
f 41/41/41 144/142/139 40/40/40
f 145/143/140 147/145/142 146/144/141
f 145/143/140 149/147/144 148/146/143
f 58/58/57 150/148/145 55/55/54
f 151/133/146 153/150/148 152/149/147
f 105/103/102 106/104/103 154/151/149
f 155/152/150 154/151/149 156/153/151
f 157/154/152 61/61/60 62/62/61
f 6/6/6 4/4/4 158/155/153
f 159/156/154 74/74/73 75/75/74
f 160/157/155 85/85/84 86/86/85
f 161/158/156 163/160/158 162/159/157
f 164/161/159 165/162/160 93/91/92
f 166/163/161 144/142/139 167/164/162
f 41/41/41 39/39/39 38/38/38
f 2/2/2 168/165/163 167/164/162
f 169/166/164 171/168/166 170/167/165
f 172/169/167 65/65/64 66/66/65
f 69/69/68 67/67/66 173/170/168
f 174/171/169 176/173/171 175/172/170
f 170/167/165 177/174/172 166/163/161
f 26/26/26 178/175/173 25/25/25
f 179/53/174 181/176/176 180/52/175
f 182/177/177 36/36/36 34/34/34
f 183/178/178 185/177/180 184/179/179
f 1/1/1 37/37/37 87/87/86
f 186/180/181 188/182/183 187/181/182
f 38/38/38 189/183/184 37/37/37
f 190/184/185 129/127/125 130/128/126
f 191/185/186 193/86/188 192/186/187
f 194/187/189 196/189/191 195/188/190
f 125/123/121 198/191/193 197/190/192
f 95/93/94 199/192/194 94/92/93
f 200/193/195 202/195/197 201/194/196
f 152/149/147 153/150/148 203/196/198
f 204/197/199 206/199/201 205/198/200
f 207/200/202 208/201/203 137/135/133
f 209/202/204 211/204/206 210/203/205
f 212/205/207 81/81/80 213/206/208
f 214/207/209 201/194/196 55/55/54
f 215/208/210 217/210/212 216/209/211
f 132/130/128 218/185/213 131/129/127
f 219/211/214 53/53/52 54/54/53
f 220/212/215 222/214/217 221/213/216
f 223/215/218 225/217/220 224/216/219
f 226/218/221 228/220/223 227/219/222
f 224/216/219 230/222/225 229/221/224
f 231/223/226 111/109/107 112/110/108
f 149/147/144 145/143/140 146/144/141
f 206/199/201 232/224/227 205/198/200
f 163/160/158 234/226/229 233/225/228
f 235/227/230 63/63/62 236/228/231
f 24/24/24 237/229/232 26/26/26
f 188/182/183 186/180/181 238/230/233
f 183/178/178 239/231/234 185/177/180
f 81/81/80 212/205/207 83/83/82
f 47/47/46 11/11/11 46/46/46
f 8/8/8 236/228/231 63/63/62
f 240/232/235 142/140/137 241/233/236
f 242/234/237 243/235/238 208/201/203
f 162/159/157 245/237/240 244/236/239
f 246/238/241 248/240/243 247/239/242
f 249/241/244 251/242/246 250/219/245
f 252/243/247 64/64/63 253/244/248
f 143/141/138 255/246/250 254/245/249
f 256/247/251 103/101/100 104/102/101
f 139/137/100 257/248/252 138/136/134
f 258/249/253 98/96/97 144/142/139
f 258/249/253 259/250/254 255/246/250
f 123/121/119 261/252/256 260/251/255
f 16/16/16 79/79/78 15/15/15
f 262/253/257 72/72/71 263/187/258
f 178/175/173 264/254/259 25/25/25
f 265/255/260 22/22/22 45/45/45
f 211/204/206 266/256/261 210/203/205
f 171/168/166 177/174/172 170/167/165
f 42/42/42 174/171/169 2/2/2
f 125/123/121 268/258/263 267/257/262
f 125/123/121 267/257/262 198/191/193
f 269/259/264 271/261/266 270/260/265
f 66/66/65 272/262/267 68/68/67
f 273/263/268 66/66/65 68/68/67
f 177/174/172 175/172/170 166/163/161
f 274/264/269 275/265/270 76/76/75
f 216/209/211 276/155/271 215/208/210
f 277/266/272 279/268/274 278/267/273
f 278/267/273 281/270/276 280/269/275
f 246/238/241 283/272/278 282/271/277
f 284/273/279 250/219/245 285/274/280
f 286/275/281 288/277/283 287/276/282
f 289/278/284 291/280/286 290/279/285
f 292/281/287 226/218/221 227/219/222
f 293/282/288 295/284/290 294/283/289
f 10/10/10 297/199/292 296/285/291
f 298/286/293 202/195/197 200/193/195
f 14/14/14 45/45/45 22/22/22
f 72/72/71 262/253/257 71/71/70
f 281/270/276 300/288/295 299/287/294
f 301/289/296 279/268/274 302/270/297
f 296/285/291 303/290/298 18/18/18
f 296/285/291 18/18/18 10/10/10
f 304/291/299 161/158/156 102/100/99
f 102/100/99 165/162/160 101/99/94
f 111/109/107 231/223/226 305/292/300
f 115/113/111 306/293/301 156/153/151
f 307/135/302 308/294/303 21/21/21
f 36/36/36 310/296/305 309/295/304
f 311/297/306 313/299/308 312/298/307
f 314/300/309 316/302/311 315/301/310
f 35/35/35 30/30/30 3/3/3
f 34/34/34 35/35/35 3/3/3
f 317/303/312 203/196/198 153/150/148
f 318/156/313 218/185/213 319/75/314
f 320/304/315 120/118/116 321/305/316
f 20/20/20 320/304/315 19/19/19
f 322/306/317 324/308/319 323/307/318
f 325/309/320 327/311/322 326/310/321
f 328/312/323 330/314/325 329/313/324
f 331/315/326 329/313/324 330/314/325
f 43/43/43 333/317/328 332/316/327
f 334/124/329 210/203/205 266/256/261
f 82/82/81 335/318/330 119/117/115
f 336/319/331 260/251/255 337/320/332
f 77/77/76 274/264/269 76/76/75
f 72/72/71 70/70/69 24/24/24
f 97/95/96 141/139/136 142/140/137
f 142/140/137 240/232/235 17/17/17
f 60/60/59 13/13/13 62/62/61
f 338/321/333 340/323/335 339/322/334
f 63/63/62 341/324/336 338/321/333
f 341/324/336 342/325/337 338/321/333
f 343/326/159 344/327/338 199/192/194
f 156/153/151 154/151/149 115/113/111
f 11/11/11 47/47/46 23/23/23
f 345/328/339 178/175/173 346/329/340
f 255/246/250 98/96/97 258/249/253
f 97/95/96 98/96/97 141/139/136
f 347/185/341 160/157/155 86/86/85
f 181/176/176 179/53/174 348/330/342
f 349/331/343 351/333/345 350/332/344
f 352/334/346 82/82/81 83/83/82
f 254/245/249 258/249/253 144/142/139
f 353/335/347 254/245/249 144/142/139
f 333/317/328 43/43/43 354/129/348
f 347/185/341 333/317/328 354/129/348
f 243/235/238 355/336/349 208/201/203
f 137/135/133 243/235/238 356/337/350
f 208/201/203 256/247/251 242/234/237
f 357/338/351 138/136/134 257/248/252
f 93/91/92 165/162/160 245/237/240
f 104/102/101 242/234/237 256/247/251
f 358/339/352 360/341/354 359/340/353
f 361/342/355 363/344/357 362/343/356
f 364/345/358 366/347/360 365/346/359
f 308/294/303 20/20/20 21/21/21
f 151/133/146 367/348/361 20/20/20
f 74/74/73 263/187/258 73/73/72
f 368/349/362 25/25/25 264/254/259
f 200/193/195 369/350/363 298/286/293
f 367/348/361 150/148/145 58/58/57
f 161/158/156 304/291/299 163/160/158
f 138/136/134 204/197/199 205/198/200
f 370/351/364 37/37/37 189/183/184
f 310/296/305 36/36/36 37/37/37
f 110/108/106 148/146/143 149/147/144
f 94/92/93 199/192/194 198/191/193
f 371/352/365 372/353/366 251/242/246
f 360/341/354 373/354/367 248/240/243
f 286/275/281 287/276/282 374/355/368
f 290/279/285 376/357/370 375/356/369
f 353/335/347 270/260/265 64/64/63
f 175/172/170 270/260/265 377/358/371
f 253/244/248 64/64/63 378/359/372
f 379/360/373 173/170/168 378/359/372
f 380/181/374 34/34/34 3/3/3
f 187/181/182 382/361/376 381/361/375
f 83/83/82 384/363/378 383/362/377
f 83/83/82 383/362/377 352/334/346
f 191/185/186 385/330/379 193/86/188
f 107/105/104 105/103/102 386/364/380
f 387/365/381 389/367/382 388/366/381
f 388/366/381 44/44/44 387/365/381
f 66/66/65 273/263/268 379/360/373
f 173/170/168 379/360/373 69/69/68
f 48/48/47 384/363/378 85/85/84
f 384/363/378 83/83/82 390/364/383
f 192/186/187 392/368/385 391/73/384
f 113/111/109 111/109/107 393/366/386
f 36/36/36 182/177/177 87/87/86
f 184/179/179 395/369/388 394/369/387
f 149/147/144 109/107/105 110/108/106
f 305/292/300 231/223/226 109/107/389
f 133/131/129 134/132/130 21/21/21
f 307/135/302 21/21/21 134/132/130
f 110/108/106 108/106/100 396/370/390
f 397/371/390 139/137/100 140/138/135
f 313/299/308 311/297/306 398/372/391
f 399/373/392 223/215/218 400/374/393
f 50/50/49 89/84/88 90/88/89
f 401/375/394 218/185/213 402/134/395
f 154/151/149 199/192/194 344/327/338
f 403/376/396 405/378/398 404/377/397
f 199/192/194 197/190/192 198/191/193
f 406/379/399 407/380/400 403/376/396
f 408/381/401 381/361/375 382/361/376
f 238/230/233 239/231/234 188/182/183
f 409/382/402 229/221/224 230/222/225
f 410/383/403 227/219/222 228/220/223
f 241/233/236 411/384/404 236/228/231
f 236/228/231 240/232/235 241/233/236
f 61/61/60 157/154/152 412/385/405
f 412/385/405 157/154/152 413/386/406
f 211/204/206 209/202/204 16/16/16
f 119/117/115 335/318/330 414/387/407
f 269/259/264 415/388/408 271/261/266
f 271/261/266 272/262/267 66/66/65
f 415/388/408 171/168/166 169/166/164
f 272/262/267 168/165/163 2/2/2
f 416/389/409 234/226/229 232/224/227
f 232/224/227 234/226/229 163/160/158
f 80/80/79 57/57/56 417/390/410
f 418/391/411 57/57/56 55/55/54
f 419/392/412 176/173/171 254/245/249
f 175/172/170 176/173/171 419/392/412
f 420/345/413 422/394/415 421/393/414
f 420/345/413 423/395/416 422/394/415
f 37/37/37 370/351/364 310/296/305
f 130/128/126 303/290/298 190/184/185
f 165/162/160 102/100/99 161/158/156
f 165/162/160 244/236/239 245/237/240
f 128/126/124 126/124/122 155/152/150
f 156/153/151 128/126/124 155/152/150
f 424/347/417 426/397/419 425/396/418
f 427/298/420 251/242/246 372/353/366
f 285/274/280 427/298/420 428/398/421
f 238/230/233 394/369/387 395/369/388
f 239/231/234 238/230/233 185/177/180
f 178/175/173 26/26/26 429/399/422
f 26/26/26 339/322/334 429/399/422
f 31/31/31 321/305/316 123/121/119
f 31/31/31 123/121/119 27/27/27
f 299/287/294 430/400/423 281/270/276
f 431/401/424 432/339/425 225/217/220
f 433/402/426 434/403/427 409/382/402
f 435/404/428 437/406/430 436/405/429
f 438/407/429 440/409/432 439/408/431
f 441/283/433 443/411/435 442/410/434
f 362/343/356 441/283/433 442/410/434
f 351/333/345 61/61/60 350/332/344
f 158/155/153 4/4/4 29/29/29
f 442/410/434 443/411/435 249/241/244
f 444/412/436 247/239/242 445/413/437
f 67/67/66 269/259/264 446/414/438
f 270/260/265 175/172/170 269/259/264
f 229/221/224 221/213/216 447/415/439
f 295/284/290 293/282/288 400/374/393
f 106/104/103 197/190/192 154/151/149
f 406/379/399 403/376/396 154/151/149
f 448/416/440 7/7/7 33/33/33
f 202/195/197 7/7/7 201/194/196
f 232/224/227 206/199/201 416/389/409
f 449/286/441 357/338/351 450/417/442
f 195/188/190 391/73/384 194/187/189
f 451/418/443 452/53/444 385/330/379
f 453/419/445 155/152/150 126/124/122
f 385/330/379 386/364/380 193/86/188
f 202/195/197 298/286/293 297/199/292
f 203/196/198 317/303/312 52/52/51
f 454/420/446 456/422/415 455/421/447
f 457/423/448 421/393/414 458/424/449
f 180/52/175 345/328/339 179/53/174
f 264/254/259 180/52/175 368/349/362
f 95/93/94 343/326/159 199/192/194
f 101/99/94 165/162/160 164/161/159
f 134/132/130 309/295/304 459/425/450
f 89/84/88 50/50/49 460/316/451
f 16/16/16 209/202/204 414/387/407
f 79/79/78 16/16/16 461/426/452
f 25/25/25 368/349/362 72/72/71
f 24/24/24 25/25/25 72/72/71
f 392/368/385 194/187/189 391/73/384
f 147/145/142 145/143/140 194/187/189
f 437/406/430 435/404/428 462/427/453
f 462/427/453 439/408/431 440/409/432
f 407/380/400 165/162/160 403/376/396
f 165/162/160 407/380/400 244/236/239
f 405/378/398 403/376/396 165/162/160
f 165/162/160 161/158/156 405/378/398
f 306/293/301 115/113/111 116/114/112
f 103/101/100 463/428/389 92/90/91
f 464/429/454 122/120/118 57/57/56
f 261/252/256 79/79/78 461/426/452
f 143/141/138 254/245/249 176/173/171
f 5/5/5 143/141/138 99/97/98
f 18/18/18 39/39/39 465/430/455
f 303/290/298 189/183/184 18/18/18
f 466/431/456 208/201/203 207/200/202
f 257/248/252 208/201/203 466/431/456
f 373/354/367 445/413/437 248/240/243
f 248/240/243 445/413/437 247/239/242
f 266/256/261 332/316/327 334/124/329
f 213/206/208 84/84/83 212/205/207
f 426/397/419 467/346/457 425/396/418
f 412/385/405 241/233/236 142/140/137
f 412/385/405 413/386/406 241/233/236
f 129/127/125 468/432/458 90/88/89
f 469/433/459 219/211/214 470/176/460
f 227/219/222 313/299/308 398/372/391
f 227/219/222 410/383/403 316/302/311
f 281/270/276 278/267/273 300/288/295
f 278/267/273 299/287/294 300/288/295
f 54/54/53 470/176/460 219/211/214
f 319/75/314 317/303/312 318/156/313
f 293/282/288 294/283/289 292/281/287
f 398/372/391 311/297/306 399/373/392
f 221/213/216 229/221/224 220/212/215
f 471/434/461 220/212/215 229/221/224
f 360/341/354 248/240/243 246/238/241
f 360/341/354 361/342/355 359/340/353
f 472/435/462 331/315/326 473/436/463
f 474/437/464 330/314/325 328/312/323
f 289/278/284 476/439/466 475/438/465
f 289/278/284 374/355/368 287/276/282
f 323/307/318 375/356/369 376/357/370
f 325/309/320 326/310/321 477/440/467
f 242/234/237 104/102/101 93/91/92
f 92/90/91 93/91/92 104/102/101
f 302/270/297 279/268/274 277/266/272
f 277/266/272 479/441/469 478/400/468
f 352/334/346 349/331/343 82/82/81
f 335/318/330 82/82/81 349/331/343
f 369/350/363 200/193/195 214/207/209
f 201/194/196 214/207/209 200/193/195
f 480/442/470 456/422/415 454/420/446
f 454/420/446 455/421/447 480/442/470
f 481/443/471 428/398/421 427/298/420
f 362/343/356 442/410/434 284/273/279
f 45/45/45 43/43/43 265/255/260
f 332/316/327 266/256/261 43/43/43
f 482/424/472 484/444/472 483/395/472
f 485/423/473 487/395/473 486/424/474
f 484/444/472 482/424/472 488/423/472
f 487/395/473 485/423/473 489/444/474
f 263/187/258 74/74/73 262/253/257
f 44/44/44 490/145/475 74/74/73
f 18/18/18 97/95/96 17/17/17
f 97/95/96 142/140/137 17/17/17
f 62/62/61 235/227/230 157/154/152
f 339/322/334 340/323/335 235/227/230
f 254/245/249 255/246/250 259/250/254
f 258/249/253 254/245/249 259/250/254
f 347/185/341 159/156/154 75/75/74
f 347/185/341 181/176/176 348/330/342
f 339/322/334 26/26/26 338/321/333
f 338/321/333 26/26/26 237/229/232
f 29/29/29 30/30/30 28/28/28
f 29/29/29 3/3/3 30/30/30
f 153/150/148 318/156/313 317/303/312
f 49/49/48 131/129/127 153/150/148
f 148/146/143 110/108/106 94/92/93
f 396/370/390 94/92/93 110/108/106
f 324/308/319 288/277/283 286/275/281
f 78/78/77 76/76/75 33/33/33
f 216/209/211 448/416/440 33/33/33
f 260/251/255 27/27/27 123/121/119
f 260/251/255 414/387/407 335/318/330
f 199/192/194 404/377/397 197/190/192
f 197/190/192 406/379/399 154/151/149
f 444/412/436 443/411/435 283/272/278
f 282/271/277 283/272/278 443/411/435
f 179/53/174 47/47/46 48/48/47
f 346/329/340 179/53/174 345/328/339
f 325/309/320 491/445/476 327/311/322
f 324/308/319 322/306/317 288/277/283
f 85/85/84 212/205/207 84/84/83
f 390/364/383 85/85/84 384/363/378
f 51/51/50 49/49/48 151/133/146
f 153/150/148 151/133/146 49/49/48
f 421/393/414 492/446/477 420/345/413
f 423/395/416 420/345/413 493/444/478
f 39/39/39 40/40/40 465/430/455
f 465/430/455 40/40/40 144/142/139
f 243/235/238 233/225/228 356/337/350
f 245/237/240 162/159/157 243/235/238
f 416/389/409 136/134/132 494/128/479
f 356/337/350 233/225/228 494/128/479
f 50/50/49 132/130/128 49/49/48
f 402/134/395 50/50/49 401/375/394
f 2/2/2 171/168/166 272/262/267
f 174/171/169 171/168/166 2/2/2
f 151/133/146 152/149/147 367/348/361
f 150/148/145 367/348/361 369/350/363
f 102/100/99 138/136/134 304/291/299
f 205/198/200 304/291/299 138/136/134
f 23/23/23 346/329/340 178/175/173
f 429/399/422 23/23/23 178/175/173
f 22/22/22 265/255/260 211/204/206
f 16/16/16 22/22/22 211/204/206
f 210/203/205 334/124/329 118/116/114
f 119/117/115 210/203/205 118/116/114
f 70/70/69 77/77/76 24/24/24
f 237/229/232 24/24/24 77/77/76
f 389/367/382 387/365/381 14/14/14
f 71/71/480 14/14/14 495/447/481
f 496/448/482 314/300/309 313/299/308
f 496/448/482 313/299/308 227/219/222
f 497/449/483 364/345/358 365/346/359
f 155/152/150 453/419/445 105/103/102
f 154/151/149 155/152/150 105/103/102
f 89/84/88 310/296/305 88/85/87
f 370/351/364 130/128/126 310/296/305
f 255/246/250 141/139/136 98/96/97
f 255/246/250 143/141/138 141/139/136
f 296/285/291 190/184/185 303/290/298
f 297/199/292 53/53/52 296/285/291
f 103/101/100 256/247/251 498/450/252
f 208/201/203 257/248/252 256/247/251
f 135/133/131 136/134/132 416/389/409
f 207/200/202 499/350/442 466/431/456
f 410/383/403 315/301/310 316/302/311
f 220/212/215 471/434/461 410/383/403
f 138/136/134 102/100/99 140/138/135
f 100/98/95 140/138/135 102/100/99
f 224/216/219 500/451/484 223/215/218
f 500/451/484 447/415/439 295/284/290
f 74/74/73 159/156/154 44/44/44
f 44/44/44 354/129/348 43/43/43
f 85/85/84 160/157/155 48/48/47
f 48/48/47 348/330/342 179/53/174
f 267/257/262 195/188/190 196/189/191
f 148/146/143 267/257/262 196/189/191
f 501/452/485 462/427/453 435/404/428
f 502/453/486 436/405/429 437/406/430
f 503/454/487 505/455/489 504/347/488
f 222/214/217 294/283/289 295/284/290
f 228/220/223 226/218/221 222/214/217
f 444/412/436 372/353/366 371/352/365
f 443/411/435 444/412/436 249/241/244
f 317/303/312 319/75/314 54/54/53
f 54/54/53 52/52/51 317/303/312
f 219/211/214 469/433/459 129/127/125
f 129/127/125 190/184/185 219/211/214
f 307/135/302 51/51/50 308/294/303
f 459/425/450 307/135/302 134/132/130
f 374/355/368 289/278/284 290/279/285
f 506/444/490 290/279/285 375/356/369
f 236/228/231 413/386/406 157/154/152
f 235/227/230 236/228/231 157/154/152
f 13/13/13 60/60/59 12/12/12
f 349/331/343 352/334/346 351/333/345
f 58/58/57 20/20/20 367/348/361
f 320/304/315 20/20/20 58/58/57
f 338/321/333 237/229/232 63/63/62
f 33/33/33 63/63/62 78/78/77
f 361/342/355 246/238/241 282/271/277
f 361/342/355 360/341/354 246/238/241
f 56/56/55 120/118/116 320/304/315
f 59/59/58 320/304/315 58/58/57
f 507/444/491 509/394/493 508/456/492
f 508/456/492 511/457/495 510/423/494
f 511/457/495 508/456/492 509/394/493
f 509/394/493 507/444/491 512/395/496
f 193/86/188 127/125/123 192/186/187
f 392/368/385 192/186/187 127/125/123
f 16/16/16 414/387/407 461/426/452
f 260/251/255 336/319/331 414/387/407
f 80/80/79 15/15/15 79/79/78
f 77/77/76 70/70/69 274/264/269
f 513/458/497 407/380/400 406/379/399
f 513/458/497 404/377/397 405/378/398
f 321/305/316 31/31/31 133/131/129
f 133/131/129 21/21/21 19/19/19
f 473/436/463 330/314/325 514/459/498
f 330/314/325 473/436/463 331/315/326
f 330/314/325 516/437/500 515/460/499
f 515/460/499 514/459/498 330/314/325
f 142/140/137 143/141/138 5/5/5
f 5/5/5 412/385/405 142/140/137
f 517/461/501 519/463/503 518/462/502
f 314/300/309 312/298/307 313/299/308
f 432/339/425 434/403/427 433/402/426
f 386/364/380 385/330/379 520/46/504
f 520/46/504 385/330/379 452/53/444
f 205/198/200 232/224/227 163/160/158
f 205/198/200 163/160/158 304/291/299
f 401/375/394 90/88/89 468/432/458
f 90/88/89 401/375/394 50/50/49
f 8/8/8 9/9/9 240/232/235
f 240/232/235 236/228/231 8/8/8
f 17/17/17 240/232/235 9/9/9
f 10/10/10 17/17/17 9/9/9
f 521/316/505 126/124/122 127/125/123
f 126/124/122 521/316/505 453/419/445
f 299/287/294 278/267/273 279/268/274
f 279/268/274 301/289/296 299/287/294
f 271/261/266 168/165/163 272/262/267
f 167/164/162 168/165/163 271/261/266
f 252/243/247 522/464/506 64/64/63
f 353/335/347 64/64/63 522/464/506
f 415/388/408 169/166/164 271/261/266
f 271/261/266 169/166/164 167/164/162
f 93/91/92 245/237/240 242/234/237
f 243/235/238 242/234/237 245/237/240
f 341/324/336 63/63/62 235/227/230
f 235/227/230 340/323/335 341/324/336
f 260/251/255 261/252/256 337/320/332
f 461/426/452 337/320/332 261/252/256
f 306/293/301 231/223/226 156/153/151
f 112/110/108 156/153/151 231/223/226
f 523/465/359 525/421/508 524/355/507
f 225/217/220 223/215/218 431/401/424
f 526/466/509 431/401/424 223/215/218
f 31/31/31 28/28/28 30/30/30
f 27/27/27 28/28/28 31/31/31
f 86/86/85 332/316/327 333/317/328
f 347/185/341 86/86/85 333/317/328
f 75/75/74 180/52/175 181/176/176
f 347/185/341 75/75/74 181/176/176
f 214/207/209 55/55/54 150/148/145
f 214/207/209 150/148/145 369/350/363
f 527/467/510 529/469/512 528/468/511
f 175/172/170 177/174/172 174/171/169
f 530/470/513 174/171/169 177/174/514
f 174/171/169 177/174/172 171/168/166
f 177/174/514 174/171/169 531/471/515
f 34/34/34 380/181/374 381/361/375
f 34/34/34 532/472/516 182/177/177
f 32/32/32 30/30/30 35/35/35
f 35/35/35 36/36/36 32/32/32
f 377/358/371 353/335/347 144/142/139
f 377/358/371 270/260/265 353/335/347
f 533/444/474 534/424/518 485/423/517
f 535/424/472 537/444/474 536/395/472
f 538/424/472 540/444/474 539/395/472
f 489/444/519 482/424/521 541/423/520
f 170/167/165 167/164/162 169/166/164
f 166/163/161 167/164/162 170/167/165
f 542/396/522 497/449/483 365/346/359
f 543/473/523 523/465/359 524/355/507
f 413/386/406 411/384/404 241/233/236
f 413/386/406 236/228/231 411/384/404
f 329/313/324 331/315/326 544/446/524
f 329/313/324 544/446/524 328/312/323
f 335/318/330 117/115/113 27/27/27
f 27/27/27 260/251/255 335/318/330
f 32/32/32 36/36/36 134/132/130
f 309/295/304 134/132/130 36/36/36
f 381/361/375 408/381/401 532/472/516
f 381/361/375 532/472/516 34/34/34
f 282/271/277 363/344/357 361/342/355
f 443/411/435 441/283/433 282/271/277
f 406/379/399 404/377/397 513/458/497
f 406/379/399 197/190/192 404/377/397
f 10/10/10 202/195/197 297/199/292
f 7/7/7 202/195/197 10/10/10
f 182/177/177 394/369/387 87/87/86
f 87/87/86 545/230/525 1/1/1
f 452/53/444 124/122/120 520/46/504
f 195/188/190 267/257/262 268/258/263
f 399/373/392 400/374/393 293/282/288
f 399/373/392 293/282/288 292/281/287
f 52/52/51 298/286/293 203/196/198
f 369/350/363 203/196/198 298/286/293
f 62/62/61 339/322/334 235/227/230
f 62/62/61 429/399/422 339/322/334
f 231/223/226 306/293/301 109/107/389
f 116/114/112 109/107/389 306/293/301
f 394/369/387 238/230/233 545/230/525
f 545/230/525 87/87/86 394/369/387
f 474/437/464 516/437/500 330/314/325
f 546/474/526 516/437/526 472/435/462
f 346/329/340 23/23/23 47/47/46
f 47/47/46 179/53/174 346/329/340
f 266/256/261 211/204/206 265/255/260
f 265/255/260 43/43/43 266/256/261
f 45/45/45 14/14/14 387/365/381
f 387/365/381 44/44/44 45/45/45
f 547/475/527 548/185/528 514/459/498
f 514/459/498 515/460/499 547/475/527
f 514/459/498 550/421/530 549/476/529
f 549/476/529 473/436/463 514/459/498
f 264/254/259 178/175/173 345/328/339
f 345/328/339 180/52/175 264/254/259
f 46/46/46 383/362/377 384/363/378
f 384/363/378 48/48/47 46/46/46
f 213/206/208 118/116/114 334/124/329
f 334/124/329 332/316/327 213/206/208
f 490/145/475 71/71/70 262/253/257
f 262/253/257 74/74/73 490/145/475
f 263/187/258 72/72/71 368/349/362
f 368/349/362 73/73/72 263/187/258
f 390/364/383 83/83/82 212/205/207
f 212/205/207 85/85/84 390/364/383
f 143/141/138 176/173/171 99/97/98
f 174/171/169 42/42/42 176/173/171
f 522/464/506 252/243/247 419/392/412
f 446/414/438 419/392/412 67/67/66
f 529/469/512 527/467/510 551/345/531
f 551/345/531 527/467/510 552/473/532
f 121/119/117 57/57/56 122/120/118
f 121/119/117 56/56/55 57/57/56
f 399/373/392 292/281/287 398/372/391
f 227/219/222 398/372/391 292/281/287
f 553/477/533 555/424/417 554/423/534
f 470/176/460 218/185/213 469/433/459
f 468/432/458 129/127/125 469/433/459
f 285/274/280 250/219/245 251/242/246
f 251/242/246 427/298/420 285/274/280
f 191/185/186 192/186/187 391/73/384
f 452/53/444 451/418/443 391/73/384
f 151/133/146 308/294/303 51/51/50
f 20/20/20 308/294/303 151/133/146
f 412/385/405 6/6/6 158/155/153
f 412/385/405 5/5/5 6/6/6
f 270/260/265 271/261/266 66/66/65
f 270/260/265 66/66/65 64/64/63
f 15/15/15 495/447/481 14/14/14
f 15/15/15 80/80/79 495/447/481
f 291/280/286 326/310/321 376/357/370
f 290/279/285 291/280/286 376/357/370
f 340/323/335 338/321/333 342/325/337
f 342/325/337 341/324/336 340/323/335
f 261/252/256 123/121/119 122/120/118
f 261/252/256 122/120/118 464/429/454
f 491/445/476 475/438/465 327/311/322
f 325/309/320 475/438/465 491/445/476
f 295/284/290 221/213/216 222/214/217
f 295/284/290 447/415/439 221/213/216
f 123/121/119 120/118/116 121/119/117
f 120/118/116 123/121/119 321/305/316
f 106/104/103 107/105/104 125/123/121
f 197/190/192 106/104/103 125/123/121
f 407/380/400 513/458/497 405/378/398
f 405/378/398 244/236/239 407/380/400
f 374/355/368 290/279/285 556/423/535
f 222/214/217 220/212/215 228/220/223
f 410/383/403 228/220/223 220/212/215
f 216/209/211 33/33/33 76/76/75
f 76/76/75 276/155/271 216/209/211
f 361/342/355 362/343/356 359/340/353
f 284/273/279 481/443/471 362/343/356
f 303/290/298 130/128/126 370/351/364
f 189/183/184 303/290/298 370/351/364
f 2/2/2 38/38/38 1/1/1
f 38/38/38 2/2/2 167/164/162
f 29/29/29 117/115/113 350/332/344
f 350/332/344 158/155/153 29/29/29
f 354/129/348 44/44/44 159/156/154
f 347/185/341 354/129/348 159/156/154
f 348/330/342 48/48/47 160/157/155
f 347/185/341 348/330/342 160/157/155
f 225/217/220 432/339/425 433/402/426
f 230/222/225 224/216/219 225/217/220
f 196/189/191 194/187/189 145/143/140
f 148/146/143 196/189/191 145/143/140
f 448/416/440 216/209/211 217/210/212
f 215/208/210 201/194/196 217/210/212
f 421/393/414 457/423/448 492/446/477
f 249/241/244 250/219/245 442/410/434
f 250/219/245 284/273/279 442/410/434
f 226/218/221 292/281/287 294/283/289
f 222/214/217 226/218/221 294/283/289
f 393/366/386 392/368/385 127/125/123
f 194/187/189 392/368/385 147/145/142
f 119/117/115 414/387/407 209/202/204
f 210/203/205 119/117/115 209/202/204
f 310/296/305 89/84/88 309/295/304
f 460/316/451 309/295/304 89/84/88
f 39/39/39 18/18/18 189/183/184
f 189/183/184 38/38/38 39/39/39
f 163/160/158 233/225/228 162/159/157
f 243/235/238 162/159/157 233/225/228
f 244/236/239 161/158/156 162/159/157
f 244/236/239 405/378/398 161/158/156
f 272/262/267 171/168/166 415/388/408
f 68/68/67 272/262/267 415/388/408
f 446/414/438 269/259/264 175/172/170
f 419/392/412 446/414/438 175/172/170
f 382/361/376 187/181/182 188/182/183
f 188/182/183 408/381/401 382/361/376
f 61/61/60 412/385/405 158/155/153
f 158/155/153 350/332/344 61/61/60
f 534/424/518 533/444/474 483/395/536
f 540/444/474 538/424/472 557/423/474
f 482/424/521 489/444/519 558/395/537
f 537/444/474 535/424/472 559/423/474
f 416/389/409 499/350/442 135/133/131
f 499/350/442 416/389/409 449/286/441
f 479/441/469 280/269/275 478/400/468
f 117/115/113 335/318/330 349/331/343
f 349/331/343 350/332/344 117/115/113
f 246/238/241 247/239/242 283/272/278
f 444/412/436 283/272/278 247/239/242
f 473/436/463 546/474/526 472/435/462
f 473/436/463 549/476/529 546/474/526
f 337/320/332 461/426/452 336/319/331
f 336/319/331 461/426/452 414/387/407
f 94/92/93 198/191/193 148/146/143
f 148/146/143 198/191/193 267/257/262
f 560/478/538 561/467/522 543/473/523
f 523/465/359 543/473/523 561/467/522
f 289/278/284 325/309/320 291/280/286
f 475/438/465 325/309/320 289/278/284
f 42/42/42 3/3/3 4/4/4
f 3/3/3 29/29/29 4/4/4
f 471/434/461 409/382/402 434/403/427
f 471/434/461 229/221/224 409/382/402
f 562/479/210 418/391/411 55/55/54
f 215/208/210 55/55/54 201/194/196
f 79/79/78 464/429/454 57/57/56
f 79/79/78 261/252/256 464/429/454
f 154/151/149 344/327/338 115/113/111
f 343/326/159 115/113/111 344/327/338
f 439/408/431 462/427/453 501/452/485
f 367/348/361 152/149/147 369/350/363
f 203/196/198 369/350/363 152/149/147
f 440/409/432 438/407/429 563/468/539
f 504/347/488 505/455/489 564/480/540
f 322/306/317 327/311/322 288/277/283
f 327/311/322 322/306/317 326/310/321
f 430/400/423 299/287/294 301/289/296
f 459/425/450 51/51/50 307/135/302
f 460/316/451 50/50/49 51/51/50
f 475/438/465 288/277/283 327/311/322
f 287/276/282 288/277/283 475/438/465
f 127/125/123 113/111/109 393/366/386
f 127/125/123 112/110/108 113/111/109
f 132/130/128 50/50/49 402/134/395
f 402/134/395 218/185/213 132/130/128
f 318/156/313 153/150/148 131/129/127
f 131/129/127 218/185/213 318/156/313
f 470/176/460 54/54/53 319/75/314
f 319/75/314 218/185/213 470/176/460
f 186/180/181 187/181/182 1/1/1
f 3/3/3 1/1/1 380/181/374
f 331/315/326 472/435/462 565/481/541
f 565/481/541 544/446/524 331/315/326
f 174/171/169 530/470/513 531/471/515
f 530/470/513 177/174/514 531/471/515
f 395/369/388 184/179/179 185/177/180
f 238/230/233 395/369/388 185/177/180
f 566/313/542 568/483/543 567/482/360
f 569/444/544 568/483/543 566/313/542
f 206/199/201 204/197/199 449/286/441
f 449/286/441 416/389/409 206/199/201
f 357/338/351 449/286/441 204/197/199
f 138/136/134 357/338/351 204/197/199
f 375/356/369 323/307/318 324/308/319
f 524/355/507 525/421/508 570/423/544
f 568/483/543 569/444/544 567/482/360
f 253/244/248 173/170/168 67/67/66
f 253/244/248 378/359/372 173/170/168
f 183/178/178 184/179/179 182/177/177
f 184/179/179 394/369/387 182/177/177
f 571/484/545 528/468/511 529/469/512
f 572/444/534 528/468/511 571/484/545
f 118/116/114 213/206/208 81/81/80
f 82/82/81 118/116/114 81/81/80
f 7/7/7 448/416/440 201/194/196
f 201/194/196 448/416/440 217/210/212
f 548/185/528 547/475/527 550/421/530
f 550/421/530 514/459/498 548/185/528
f 94/92/93 396/370/390 96/94/95
f 397/371/390 140/138/135 100/98/95
f 355/336/349 137/135/133 208/201/203
f 355/336/349 243/235/238 137/135/133
f 199/192/194 154/151/149 403/376/396
f 404/377/397 199/192/194 403/376/396
f 465/430/455 144/142/139 98/96/97
f 18/18/18 465/430/455 98/96/97
f 93/91/92 91/89/90 164/161/159
f 115/113/111 343/326/159 114/112/110
f 12/12/12 60/60/59 352/334/346
f 12/12/12 352/334/346 383/362/377
f 573/424/546 510/423/494 511/457/495
f 298/286/293 52/52/51 297/199/292
f 53/53/52 297/199/292 52/52/51
f 415/388/408 269/259/264 68/68/67
f 67/67/66 68/68/67 269/259/264
f 386/364/380 453/419/445 521/316/505
f 386/364/380 105/103/102 453/419/445
f 532/472/516 239/231/234 183/178/178
f 532/472/516 183/178/178 182/177/177
f 391/73/384 195/188/190 452/53/444
f 124/122/120 452/53/444 195/188/190
f 428/398/421 481/443/471 284/273/279
f 428/398/421 284/273/279 285/274/280
f 229/221/224 447/415/439 224/216/219
f 447/415/439 500/451/484 224/216/219
f 38/38/38 167/164/162 41/41/41
f 144/142/139 41/41/41 167/164/162
f 23/23/23 429/399/422 13/13/13
f 429/399/422 62/62/61 13/13/13
f 469/433/459 218/185/213 468/432/458
f 468/432/458 218/185/213 401/375/394
f 186/180/181 545/230/525 238/230/233
f 186/180/181 1/1/1 545/230/525
f 323/307/318 326/310/321 322/306/317
f 376/357/370 326/310/321 323/307/318
f 239/231/234 532/472/516 408/381/401
f 408/381/401 188/182/183 239/231/234
f 400/374/393 500/451/484 295/284/290
f 400/374/393 223/215/218 500/451/484
f 127/125/123 193/86/188 521/316/505
f 521/316/505 193/86/188 386/364/380
f 409/382/402 230/222/225 433/402/426
f 225/217/220 433/402/426 230/222/225
f 59/59/58 56/56/55 320/304/315
f 55/55/54 56/56/55 59/59/58
f 574/465/547 552/473/532 527/467/510
f 552/473/532 574/465/547 575/485/548
f 66/66/65 379/360/373 172/169/167
f 65/65/64 172/169/167 379/360/373
f 191/185/186 451/418/443 385/330/379
f 191/185/186 391/73/384 451/418/443
f 419/392/412 254/245/249 522/464/506
f 353/335/347 522/464/506 254/245/249
f 445/413/437 373/354/367 358/339/352
f 360/341/354 358/339/352 373/354/367
f 417/390/410 57/57/56 276/155/411
f 576/486/271 76/76/75 275/265/270
f 479/441/469 278/267/273 280/269/275
f 278/267/273 479/441/469 277/266/272
f 166/163/161 175/172/170 377/358/371
f 144/142/139 166/163/161 377/358/371
f 180/52/175 75/75/74 73/73/72
f 73/73/72 368/349/362 180/52/175
f 332/316/327 86/86/85 84/84/83
f 84/84/83 213/206/208 332/316/327
f 130/128/126 90/88/89 88/85/87
f 88/85/87 310/296/305 130/128/126
f 53/53/52 219/211/214 190/184/185
f 190/184/185 296/285/291 53/53/52
f 4/4/4 99/97/98 42/42/42
f 99/97/98 176/173/171 42/42/42
f 136/134/132 356/337/350 494/128/479
f 356/337/350 136/134/132 137/135/133
f 273/263/268 68/68/67 69/69/68
f 379/360/373 273/263/268 69/69/68
f 237/229/232 77/77/76 78/78/77
f 237/229/232 78/78/77 63/63/62
f 282/271/277 441/283/433 363/344/357
f 441/283/433 362/343/356 363/344/357
f 577/487/141 393/366/386 111/109/107
f 305/292/300 146/144/141 111/109/107
f 383/362/377 46/46/46 11/11/11
f 383/362/377 11/11/11 12/12/12
f 289/278/284 287/276/282 476/439/466
f 476/439/466 287/276/282 475/438/465
f 61/61/60 351/333/345 60/60/59
f 351/333/345 352/334/346 60/60/59
f 378/359/372 64/64/63 65/65/64
f 378/359/372 65/65/64 379/360/373
f 234/226/229 494/128/479 233/225/228
f 234/226/229 416/389/409 494/128/479
f 444/412/436 371/352/365 249/241/244
f 251/242/246 249/241/244 371/352/365
f 477/440/467 291/280/286 325/309/320
f 326/310/321 291/280/286 477/440/467
f 268/258/263 125/123/121 124/122/120
f 195/188/190 268/258/263 124/122/120
f 316/302/311 496/448/482 227/219/222
f 316/302/311 314/300/309 496/448/482
f 1/1/1 187/181/182 380/181/374
f 381/361/375 380/181/374 187/181/182
f 309/295/304 460/316/451 459/425/450
f 51/51/50 459/425/450 460/316/451
f 67/67/66 252/243/247 253/244/248
f 67/67/66 419/392/412 252/243/247
f 137/135/133 135/133/131 207/200/202
f 499/350/442 207/200/202 135/133/131
f 156/153/151 112/110/108 128/126/124
f 112/110/108 127/125/123 128/126/124
f 553/477/533 575/485/548 574/465/547
f 575/485/548 553/477/533 554/423/534
f 19/19/19 320/304/315 321/305/316
f 19/19/19 321/305/316 133/131/129
f 386/364/380 520/46/504 107/105/104
f 124/122/120 107/105/104 520/46/504
